<?xml version="1.0" encoding="utf-8"?>
<!-- Generator: Adobe Illustrator 19.2.1, SVG Export Plug-In . SVG Version: 6.00 Build 0)  -->
<svg version="1.1" id="Layer_1" xmlns="http://www.w3.org/2000/svg" xmlns:xlink="http://www.w3.org/1999/xlink" x="0px" y="0px"
	 viewBox="0 0 500 500" style="enable-background:new 0 0 500 500;" xml:space="preserve">
<style type="text/css">
	.st0{fill:#37B7CC;}
	.st1{fill:#46C3E0;}
	.st2{fill:#CBEFED;}
	.st3{fill:#D22856;}
	.st4{fill:#96E0DE;}
	.st5{fill:#68D8EA;}
	.st6{fill:#7DE3F4;}
</style>
<g>
	<path class="st0" d="M415.4,281h-95.1c-3.5,0-6.4-2.9-6.4-6.4s2.9-6.4,6.4-6.4h95.1c14.1,0,26.7-9.5,30.4-23.2
		c0.9-3.4,4.5-5.4,7.9-4.5s5.4,4.5,4.5,7.9C452.8,267.6,435.3,281,415.4,281z"/>
	<path class="st0" d="M179.7,281H84.6c-19.9,0-37.5-13.4-42.7-32.6c-0.9-3.4,1.1-6.9,4.5-7.9c3.4-0.9,6.9,1.1,7.9,4.5
		c3.8,13.6,16.3,23.2,30.4,23.2h95.1c3.5,0,6.4,2.9,6.4,6.4C186.1,278.2,183.2,281,179.7,281z"/>
	<path class="st0" d="M250,210.7c-3.5,0-6.4-2.9-6.4-6.4v-42.9c0-3.5,2.9-6.4,6.4-6.4s6.4,2.9,6.4,6.4v42.9
		C256.4,207.8,253.5,210.7,250,210.7z"/>
	<path class="st0" d="M329.3,224.5h-48.7c-3.5,0-6.4-2.9-6.4-6.4s2.9-6.4,6.4-6.4h48.7c3.5,0,6.4,2.9,6.4,6.4
		S332.8,224.5,329.3,224.5z"/>
	<path class="st0" d="M219.5,224.5h-48.7c-3.5,0-6.4-2.9-6.4-6.4s2.9-6.4,6.4-6.4h48.7c3.5,0,6.4,2.9,6.4,6.4S223,224.5,219.5,224.5
		z"/>
	<circle class="st1" cx="250" cy="274.6" r="70.3"/>
	<path class="st2" d="M288.1,253.6L273.6,268h-47.3l-14.5-14.5c6.6-6.6,14.5-11.2,22.9-13.6c5-1.4,10.1-2.2,15.2-2.2
		C263.8,237.8,277.6,243,288.1,253.6z"/>
	<circle class="st1" cx="377.4" cy="308.1" r="33.5"/>
	<circle class="st1" cx="122.6" cy="308.1" r="33.5"/>
	<circle class="st3" cx="122.6" cy="308.1" r="20.6"/>
	<circle class="st3" cx="377.4" cy="308.1" r="20.6"/>
	<path class="st4" d="M288.1,253.6L273.6,268H250v-30.2C263.8,237.8,277.6,243,288.1,253.6z"/>
	<circle class="st5" cx="250" cy="291.6" r="33.4"/>
	<path class="st6" d="M250,298c-0.4,0-0.8,0-1.3-0.1c-0.4-0.1-0.8-0.2-1.2-0.4c-0.4-0.2-0.8-0.4-1.1-0.6s-0.7-0.5-1-0.8
		s-0.6-0.6-0.8-1c-0.2-0.3-0.4-0.7-0.6-1.1c-0.2-0.4-0.3-0.8-0.4-1.2c-0.1-0.4-0.1-0.8-0.1-1.3c0-0.4,0-0.8,0.1-1.3
		c0.1-0.4,0.2-0.8,0.4-1.2c0.2-0.4,0.4-0.8,0.6-1.1c0.2-0.3,0.5-0.7,0.8-1s0.6-0.6,1-0.8c0.3-0.2,0.7-0.4,1.1-0.6
		c0.4-0.2,0.8-0.3,1.2-0.4c0.8-0.2,1.7-0.2,2.5,0c0.4,0.1,0.8,0.2,1.2,0.4c0.4,0.2,0.8,0.4,1.1,0.6s0.7,0.5,1,0.8s0.6,0.6,0.8,1
		c0.2,0.3,0.4,0.7,0.6,1.1c0.2,0.4,0.3,0.8,0.4,1.2c0.1,0.4,0.1,0.8,0.1,1.3c0,0.4,0,0.8-0.1,1.3c-0.1,0.4-0.2,0.8-0.4,1.2
		c-0.2,0.4-0.4,0.8-0.6,1.1c-0.2,0.3-0.5,0.7-0.8,1s-0.6,0.6-1,0.8c-0.3,0.2-0.7,0.4-1.1,0.6c-0.4,0.2-0.8,0.3-1.2,0.4
		C250.8,298,250.4,298,250,298z"/>
</g>
</svg>
