<?xml version="1.0" encoding="utf-8"?>
<!-- Generator: Adobe Illustrator 19.2.1, SVG Export Plug-In . SVG Version: 6.00 Build 0)  -->
<svg version="1.1" id="Layer_1" xmlns="http://www.w3.org/2000/svg" xmlns:xlink="http://www.w3.org/1999/xlink" x="0px" y="0px"
	 viewBox="0 0 500 500" style="enable-background:new 0 0 500 500;" xml:space="preserve">
<style type="text/css">
	.st0{fill:#D22856;}
	.st1{fill:#666666;}
	.st2{fill:#CCCCCC;}
	.st3{fill:#999999;}
	.st4{fill:#F7CF52;}
	.st5{fill:#76CDCE;}
	.st6{fill:#FFFFFF;}
	.st7{fill:#4D4D4D;}
	.st8{fill:#96E0DE;}
</style>
<g>
	<path class="st0" d="M432.3,71.2v323.3h-21.9h-1.8v-28.9v-31.5V296v-67.9l-17.9-109.4H109.3L91.4,228.1V296v38.1v31.5v28.9h-1.8
		H67.7V71.2c0-6.6,5.4-12,12-12h340.6C426.9,59.3,432.3,64.6,432.3,71.2z"/>
	<path class="st1" d="M408.5,394.5v37.4c0,4.9-4,8.9-8.9,8.9h-52.9c-4.9,0-8.9-4-8.9-8.9v-37.4h68.9H408.5z"/>
	<path class="st2" d="M421,380L421,380c0,8-6.5,14.5-14.5,14.5h-59.8h-32.9H201h-47.7H93.4c-8,0-14.5-6.5-14.5-14.5l0,0
		c0-8,6.5-14.5,14.5-14.5h313.1C414.5,365.6,421,372,421,380z"/>
	<path class="st3" d="M408.6,334.1v31.5H91.4v-31.5h23.4h34c7.5,0,13.5-6,13.5-13.5v-11.1c0-7.5-6-13.5-13.5-13.5h-34H91.4v-67.9
		l17.9-109.4h281.3l17.9,109.4V296h-23.4h-34c-7.5,0-13.5,6-13.5,13.5v11.1c0,7.5,6,13.5,13.5,13.5h34H408.6z M386.3,228.1
		L372,140.7H128l-14.3,87.4H386.3z"/>
	<rect x="385.2" y="296" class="st4" width="23.4" height="38.1"/>
	<polygon class="st5" points="372,140.7 386.3,228.1 113.7,228.1 128,140.7 	"/>
	<path class="st6" d="M385.2,296v38.1h-34c-7.5,0-13.5-6-13.5-13.5v-11.1c0-7.5,6-13.5,13.5-13.5H385.2z"/>
	<path class="st7" d="M309.2,394.5v4.5c0,11-8.9,19.9-19.9,19.9h-64.8c-11,0-19.9-8.9-19.9-19.9v-4.5H309.2z"/>
	<path class="st6" d="M162.3,309.5v11.1c0,7.5-6,13.5-13.5,13.5h-34V296h34C156.2,296,162.3,302,162.3,309.5z"/>
	<path class="st1" d="M162.1,394.5v37.4c0,4.9-4,8.9-8.9,8.9h-52.9c-4.9,0-8.9-4-8.9-8.9v-37.4h1.8H162.1z"/>
	<rect x="91.4" y="296" class="st4" width="23.4" height="38.1"/>
	<polygon class="st8" points="200,140.7 287.7,228.4 386.3,228.4 372,140.7 	"/>
</g>
</svg>
