<?xml version="1.0" encoding="utf-8"?>
<!-- Generator: Adobe Illustrator 19.2.1, SVG Export Plug-In . SVG Version: 6.00 Build 0)  -->
<svg version="1.1" id="Layer_1" xmlns="http://www.w3.org/2000/svg" xmlns:xlink="http://www.w3.org/1999/xlink" x="0px" y="0px"
	 viewBox="0 0 120 120" style="enable-background:new 0 0 120 120;" xml:space="preserve">
<style type="text/css">
	.st0{fill:#242424;}
	.st1{fill:#263740;}
	.st2{fill:#1E2C33;}
	.st3{fill:#CCCCCC;}
	.st4{fill:#B3B3B3;}
	.st5{fill:#E6E6E6;}
</style>
<g>
	<path class="st0" d="M89.4,41.9c-0.4-1.2-0.8-2.3-1.2-3.5c-1.2,0.2-2.4,0.5-3.7,0.7c-0.4-0.6-0.8-1.1-1.3-1.7
		c0.5-0.8,1-1.6,1.5-2.4c-0.7-1.3-1.4-2.6-2.2-3.9c-1.3-0.1-2.7-0.2-4-0.3c-1.3-0.9-2.6-1.8-3.8-2.7c-1,0.9-1.9,1.7-2.9,2.6
		c-1.5-0.5-3-0.9-4.5-1.3c-0.6-1.4-1.2-2.9-1.8-4.3c-2.2,0.8-4.5,1.7-6.7,2.5c-0.8-1.4-1.5-2.8-2.3-4.2c-1.2,0.4-2.4,0.8-3.6,1.3
		c-2.3-0.2-4.5-0.4-6.8-0.6c-1.8,2.3-3.7,4.6-5.5,6.8c0.2,0.9,0.4,1.7,0.6,2.6c-0.8,0.8-1.5,1.7-2.3,2.5c-1.4,0.5-2.8,1.1-4.2,1.6
		c-0.2,1.8-0.4,3.5-0.6,5.3c-1.3-0.3-2.5-0.6-3.7-0.9c-1.3,1.1-2.5,2.2-3.8,3.3c-1.5,2.4-3,4.7-4.6,7.1c3.7,1.1,7.4,2.3,11.1,3.4h51
		c3.8-1.1,7.6-2.2,11.3-3.3c-0.3-1.8-0.7-3.6-1-5.3c0.3-1.1,0.6-2.2,0.8-3.3C93.5,43.3,91.5,42.6,89.4,41.9z"/>
	<polygon class="st1" points="21.1,54.9 28.1,88.4 34.6,88.4 85.6,88.4 90,88.4 97.1,54.9 	"/>
	<polygon class="st2" points="93.1,54.9 86,88.4 90,88.4 97.1,54.9 	"/>
	<g>
		<path class="st3" d="M78.1,93.5c-4.4,0-8-3.7-8-8.1s3.6-8.1,8-8.1s8,3.7,8,8.1S82.5,93.5,78.1,93.5z"/>
		<ellipse class="st4" cx="78.1" cy="85.4" rx="6" ry="6.1"/>
		<ellipse class="st1" cx="78.1" cy="85.4" rx="1" ry="1"/>
	</g>
	<g>
		<path class="st3" d="M41.1,93.5c-4.4,0-8-3.7-8-8.1s3.6-8.1,8-8.1s8,3.7,8,8.1S45.5,93.5,41.1,93.5z"/>
		<ellipse class="st4" cx="41.1" cy="85.4" rx="6" ry="6.1"/>
		<ellipse class="st1" cx="41.1" cy="85.4" rx="1" ry="1"/>
	</g>
	<path class="st5" d="M99.1,52.9c0-0.6-0.4-1-1-1h-78c-0.5,0-1,0.5-1,1v1c0,0.6,0.5,1,1,1h78c0.6,0,1-0.5,1-1V52.9z"/>
</g>
</svg>
