<?xml version="1.0" encoding="utf-8"?>
<!-- Generator: Adobe Illustrator 19.2.1, SVG Export Plug-In . SVG Version: 6.00 Build 0)  -->
<svg version="1.1" id="Layer_1" xmlns="http://www.w3.org/2000/svg" xmlns:xlink="http://www.w3.org/1999/xlink" x="0px" y="0px"
	 viewBox="0 0 120 120" style="enable-background:new 0 0 120 120;" xml:space="preserve">
<style type="text/css">
	.st0{fill:#2B3B4E;}
	.st1{fill:#324A5E;}
	.st2{fill:#CCCCCC;}
</style>
<g>
	<g>
		<rect x="81.2" y="40.9" class="st0" width="2.9" height="1.6"/>
		<rect x="81.2" y="44.5" class="st0" width="2.9" height="1.6"/>
		<path class="st0" d="M81.2,48.1h2.8v0.2c0,0.9-1.4,2.9-1.4,2.9s-1.4-2-1.4-2.9V48.1L81.2,48.1z"/>
	</g>
	<g>
		<path class="st1" d="M85.6,40c0,0.6-0.4,1-0.9,1h-4.2c-0.5,0-0.9-0.5-0.9-1s0.4-1,0.9-1h4.3C85.2,39,85.6,39.4,85.6,40z"/>
		<path class="st1" d="M85.6,43.5c0,0.6-0.4,1-0.9,1h-4.2c-0.5,0-0.9-0.5-0.9-1c0-0.6,0.4-1,0.9-1h4.3C85.2,42.5,85.6,43,85.6,43.5z
			"/>
		<path class="st1" d="M85.6,47c0,0.6-0.4,1-0.9,1h-4.2c-0.5,0-0.9-0.5-0.9-1c0-0.6,0.4-1,0.9-1h4.3C85.2,46.1,85.6,46.5,85.6,47z"
			/>
	</g>
	<g>
		<rect x="35.9" y="40.9" class="st0" width="2.8" height="1.6"/>
		<rect x="35.9" y="44.5" class="st0" width="2.8" height="1.6"/>
		<path class="st0" d="M35.9,48.1h2.8v0.2c0,0.9-1.4,2.9-1.4,2.9s-1.4-2-1.4-2.9V48.1z"/>
	</g>
	<g>
		<path class="st1" d="M40.3,40c0,0.6-0.4,1-0.9,1h-4.1c-0.5,0-0.9-0.5-0.9-1s0.4-1,0.9-1h4.2C40,39,40.3,39.4,40.3,40z"/>
		<path class="st1" d="M40.3,43.5c0,0.6-0.4,1-0.9,1h-4.1c-0.5,0-0.9-0.5-0.9-1c0-0.6,0.4-1,0.9-1h4.2C40,42.5,40.3,43,40.3,43.5z"
			/>
		<path class="st1" d="M40.3,47c0,0.6-0.4,1-0.9,1h-4.1c-0.5,0-0.9-0.5-0.9-1c0-0.6,0.4-1,0.9-1h4.2C40,46.1,40.3,46.5,40.3,47z"/>
	</g>
	<g>
		<path class="st2" d="M81.1,97.3L66.6,53.7c-0.1-0.2-0.1-0.4,0.1-0.6l8.3-14.9l-1.3-8.4c0-0.2,0-0.4,0.1-0.5l4.9-6.3l-1-1.6
			l-7.5,8.5l-0.3,8.6c0,0.2-0.1,0.3-0.2,0.4l-9.3,9.8c-0.1,0.2-0.4,0.2-0.7,0L50.3,39c-0.1-0.1-0.1-0.3-0.1-0.4L49.9,30l-7.5-8.5
			l-1,1.6l4.9,6.3c0.1,0.1,0.2,0.3,0.1,0.5l-1.3,8.4l8.3,14.9c0.1,0.2,0.1,0.4,0.1,0.6L38.8,97.2l-1-0.4l14.5-43.3l-8.2-14.8
			c-0.1-0.1-0.1-0.3-0.1-0.4l1.3-8.3l-5-6.5c-0.2-0.2-0.2-0.5,0-0.7l1.5-2.5c0.1-0.1,0.2-0.2,0.3-0.3c0.2,0,0.3,0,0.4,0.2l8,9
			c0.1,0.1,0.2,0.3,0.2,0.4l0.3,8.5l8.9,9.5l8.8-9.5l0.3-8.5c0-0.2,0.1-0.3,0.2-0.4l8-9c0.1-0.1,0.2-0.2,0.4-0.2s0.2,0.1,0.3,0.3
			l1.5,2.5c0.1,0.2,0.1,0.6,0,0.7L74.6,30l1.3,8.3c0,0.2,0,0.3-0.1,0.4l-8.2,14.8l14.5,43.3L81.1,97.3z"/>
		<path class="st2" d="M70.9,65.1H49.1c-0.2,0-0.3-0.2-0.4-0.4s0-0.5,0.2-0.6l10.3-6.2l-6.5-4.1c-0.2-0.1-0.2-0.3-0.2-0.6
			c0.1-0.2,0.2-0.4,0.4-0.4h14.1c0.2,0,0.3,0.2,0.4,0.4s0,0.5-0.2,0.6l-6.5,4.1l10.1,6.3c0.1,0.1,0.2,0.3,0.1,0.6
			C71.2,65,71,65.1,70.9,65.1z M50.8,64.1h18.5L60,58.4L50.8,64.1z M54.5,53.9l5.5,3.4l5.5-3.4H54.5z"/>
		<path class="st2" d="M75.1,78.2H44.8c-0.2,0-0.3-0.2-0.4-0.4c0-0.2,0.1-0.5,0.2-0.6L59,70l-10-5l0.3-0.8L60,69.5l10.7-5.4l0.3,0.8
			l-10,5l14.3,7.2c0.1,0.1,0.2,0.3,0.2,0.6C75.5,78,75.4,78.2,75.1,78.2z M46.7,77.2h26.5L60,70.5L46.7,77.2z"/>
		<polygon class="st2" points="44.6,78.1 44.9,77.2 81.8,96.6 81.4,97.4 		"/>
		<polygon class="st2" points="38.2,96.6 75,77.3 75.3,78.1 38.5,97.5 		"/>
		<path class="st2" d="M75.1,38.6l-5.8-8.7c-0.1-0.1-0.1-0.2-0.1-0.3s0.1-0.2,0.2-0.2l6.5-2.7l1.3-6.1l0.5,0.2l-1.4,6.3
			c0,0.1-0.1,0.2-0.1,0.3L70,30l5.5,8.4L75.1,38.6z"/>
		<path class="st2" d="M44.8,38.6l-0.5-0.5l5.5-8.4l-6.2-2.5c-0.1,0-0.2-0.1-0.2-0.3L42,20.6l0.5-0.2l1.3,6.1l6.5,2.7
			c0.1,0,0.2,0.1,0.2,0.2s0,0.2-0.1,0.3L44.8,38.6z"/>
		<path class="st2" d="M90,39H30v-0.6c0-5.6,11.9-9.3,15.8-9.3h28.4c3.9,0,15.8,3.7,15.8,9.3V39L90,39z M31.1,37.8h57.8
			c-0.9-4-10.8-7.5-14.8-7.5H45.8C41.9,30.3,32,33.8,31.1,37.8z"/>
		<path class="st2" d="M60.4,38.4h-0.8v-8.7c0-0.2,0.1-0.4,0.2-0.4c0.2-0.1,0.3-0.1,0.4,0l9.3,8.2L69,38.2l-8.7-7.5L60.4,38.4
			L60.4,38.4z"/>
		<polygon class="st2" points="50.5,38.2 59.8,29.4 60.2,30.1 50.9,38.9 		"/>
		<path class="st2" d="M82.9,38.9L82.9,38.9c-0.1,0-0.2-0.1-0.3-0.3l-3.4-7.1l-3.4,7.1L75,38.1l3.8-7.7c0.1-0.2,0.2-0.2,0.3-0.2l0,0
			c0.1,0,0.2,0.1,0.3,0.3l3.5,7.2l2.6-4.1l0.7,0.6l-2.9,4.7C83.3,38.8,83.2,38.9,82.9,38.9z"/>
		<path class="st2" d="M37,38.9c-0.2,0-0.2-0.1-0.3-0.2l-3-4.7l0.7-0.6l2.5,4.1l3.5-7.2c0.1-0.2,0.2-0.2,0.3-0.3l0,0
			c0.2,0,0.2,0.1,0.3,0.2l3.8,7.7l-0.8,0.5l-3.5-7.1l-3.4,7.1C37.3,38.8,37.1,38.9,37,38.9C37,38.9,37,38.9,37,38.9z"/>
		<path class="st2" d="M66.8,53.9l-7.1-5.1c-0.1-0.1-0.2-0.3-0.1-0.6c0.1-0.2,0.2-0.4,0.4-0.4h9L65.1,43c-0.1-0.1-0.2-0.4-0.1-0.5
			c0.1-0.2,0.2-0.3,0.4-0.3h6.7l-3-3.5l0.5-0.7l3.7,4.3c0.1,0.1,0.2,0.4,0.1,0.5c0,0.2-0.2,0.2-0.4,0.2h-6.7l3.9,4.9
			c0.1,0.1,0.2,0.4,0.1,0.5c-0.1,0.2-0.2,0.3-0.4,0.3h-8.5l5.9,4.2L66.8,53.9z"/>
		<path class="st2" d="M53.2,53.9l-0.4-0.7l5.9-4.2h-8.6c-0.2,0-0.3-0.1-0.4-0.3c-0.1-0.2,0-0.4,0.1-0.5l3.9-4.9H47
			c-0.2,0-0.3-0.1-0.4-0.3s0-0.4,0.1-0.5l3.7-4.3l0.5,0.7l-3,3.5h6.7c0.1,0,0.3,0.1,0.4,0.3c0.1,0.2,0,0.4-0.1,0.5l-3.9,5h9
			c0.2,0,0.3,0.1,0.4,0.4c0.1,0.2,0,0.4-0.2,0.6L53.2,53.9z"/>
	</g>
	<g>
		<polygon class="st2" points="84,96 77.8,96 76.6,100 85.3,100 		"/>
		<polygon class="st2" points="41.5,96 35.3,96 34,100 42.7,100 		"/>
	</g>
</g>
</svg>
