<?xml version="1.0" encoding="utf-8"?>
<!-- Generator: Adobe Illustrator 19.2.1, SVG Export Plug-In . SVG Version: 6.00 Build 0)  -->
<svg version="1.1" id="Capa_1" xmlns="http://www.w3.org/2000/svg" xmlns:xlink="http://www.w3.org/1999/xlink" x="0px" y="0px"
	 viewBox="0 0 120 120" style="enable-background:new 0 0 120 120;" xml:space="preserve">
<style type="text/css">
	.st0{fill:#949493;}
	.st1{fill:#C7CAC7;}
	.st2{fill:#E7ECED;}
	.st3{fill:#556080;}
	.st4{fill:#FCEB1A;}
</style>
<g>
	<rect x="87.6" y="69.1" class="st0" width="8.3" height="30.9"/>
	<polyline class="st1" points="32.4,95.8 87.6,95.8 87.6,73.3 32.4,73.3 	"/>
	<rect x="95.9" y="73.3" class="st1" width="4.1" height="22.5"/>
	<rect x="24.1" y="69.1" class="st0" width="8.3" height="30.9"/>
	<rect x="20" y="73.3" class="st1" width="4.1" height="22.5"/>
	<rect x="39.3" y="64.9" class="st2" width="41.4" height="8.4"/>
	<rect x="43.4" y="60.7" class="st1" width="33.1" height="4.2"/>
	<rect x="53.1" y="49.5" class="st0" width="13.8" height="11.2"/>
	<rect x="57.2" y="36.8" class="st3" width="5.5" height="12.6"/>
	<path class="st4" d="M65,23.4l-0.3,0.3c-1.2,1.3-2.9,2-4.7,2l0,0c-1.8,0-3.4-0.7-4.7-2L55,23.4c-1.2-1.3-2.9-2-4.7-2H43
		c-3.6,0-6.5,2.9-6.5,6.6v6.3c0,3.6,2.9,6.6,6.5,6.6h10.1v-4.2h13.8v4.2H77c3.6,0,6.5-2.9,6.5-6.6V28c0-3.6-2.9-6.6-6.5-6.6h-7.3
		C67.9,21.4,66.2,22.1,65,23.4z"/>
	<path class="st3" d="M60,25.6c1,0,1.9-0.3,2.8-0.6v-5h-5.5v5.1C58.1,25.3,59,25.6,60,25.6z"/>
</g>
</svg>
