<?xml version="1.0" encoding="utf-8"?>
<!-- Generator: Adobe Illustrator 19.2.1, SVG Export Plug-In . SVG Version: 6.00 Build 0)  -->
<svg version="1.1" id="Layer_1" xmlns="http://www.w3.org/2000/svg" xmlns:xlink="http://www.w3.org/1999/xlink" x="0px" y="0px"
	 viewBox="0 0 512 512" style="enable-background:new 0 0 512 512;" xml:space="preserve">
<style type="text/css">
	.st0{fill:#666666;}
	.st1{fill:#999999;}
	.st2{fill:#CCCCCC;}
	.st3{fill:#06B559;}
	.st4{fill:#0B9B53;}
	.st5{fill:#088443;}
	.st6{fill:none;stroke:#333333;stroke-width:15;stroke-linejoin:round;stroke-miterlimit:10;}
	.st7{fill:#4D4D4D;}
</style>
<path class="st0" d="M354.6,176.4c-2.4,0-4.4-2-4.4-4.4v-12.8c0-2.4,2-4.4,4.4-4.4c2.4,0,4.4,2,4.4,4.4V172
	C359,174.4,357,176.4,354.6,176.4z"/>
<rect x="222.5" y="167.6" class="st1" width="151.6" height="8.8"/>
<g>
	<path class="st2" d="M284.3,201.1c-2.2,0-4-1.8-4-4v-34c0-2.2,1.8-4,4-4s4,1.8,4,4v34C288.3,199.3,286.5,201.1,284.3,201.1z"/>
	<path class="st2" d="M268.4,201.1c-2.2,0-4-1.8-4-4v-34c0-2.2,1.8-4,4-4c2.2,0,4,1.8,4,4v34C272.4,199.3,270.6,201.1,268.4,201.1z"
		/>
</g>
<path class="st3" d="M352.5,226.7l-65.1,33H111.8c-4.2,0-8.4,0.3-12.5,0.9L83,237.2c-1.6-2.3-2.5-5.1-2.5-8v-12.1l161.3-26.4h15.2
	h27.4h11.2c3.6,0,7.1,1.1,10,3.2L352.5,226.7z"/>
<g>
	<path class="st4" d="M241.8,190.6l-14.3,26.4h-147l0,0c0-5.4,3.1-10.3,8-12.6l21.5-10.1c5.2-2.4,10.8-3.7,16.6-3.7L241.8,190.6
		L241.8,190.6z"/>
	<path class="st4" d="M434.5,250.5l-10.9,9.2H287.4v-33h65.1h34l46.6,15.9C436.4,243.8,437.2,248.2,434.5,250.5z"/>
</g>
<path class="st5" d="M439.7,278.6l-18.1-12.3H111.8c-3.9,0-7.8,0.3-11.6,0.9c-6.7,1-13.2,2.8-19.4,5.5l-10.7,4.6l-5.2-12.2l10.7-4.6
	c7.3-3.1,14.9-5.3,22.7-6.4c4.4-0.7,9-1,13.5-1h311.7c1.3,0,2.6,0.4,3.7,1.1l19.8,13.4L439.7,278.6z"/>
<line class="st6" x1="426.8" y1="314.3" x2="427.3" y2="313.8"/>
<g>
	<path class="st1" d="M200.2,328.8c0-12.4-10.1-22.5-22.5-22.5c-12.4,0-22.5,10.1-22.5,22.5c0,12.4,10.1,22.5,22.5,22.5
		C190.1,351.3,200.2,341.2,200.2,328.8z"/>
	<path class="st1" d="M278.7,332.7c0-10.2-8.3-18.6-18.6-18.6c-10.2,0-18.5,8.3-18.5,18.6s8.3,18.6,18.5,18.6
		C270.4,351.3,278.7,343,278.7,332.7z"/>
	<path class="st1" d="M372.2,327.4c0-13.2-10.7-23.9-23.9-23.9c-13.2,0-23.9,10.7-23.9,23.9c0,13.2,10.7,23.9,23.9,23.9
		C361.5,351.3,372.2,340.6,372.2,327.4z"/>
	<path class="st1" d="M427.3,314.5c4.5-3,7.4-8.2,7.4-14c0-9.3-7.6-16.9-16.9-16.9c-9.4,0-16.9,7.6-16.9,16.9
		c0,9.4,7.6,16.9,16.9,16.9C421.3,317.4,424.6,316.3,427.3,314.5z"/>
	<path class="st1" d="M94.9,324.3c2.2,0.8,4.6,1.2,7.1,1.2c11.4,0,20.7-9.3,20.7-20.7c0-11.4-9.3-20.7-20.7-20.7
		c-11.4,0-20.7,9.3-20.7,20.7C81.3,313.8,86.9,321.4,94.9,324.3C94.9,324.3,94.9,324.3,94.9,324.3z"/>
</g>
<path class="st5" d="M427.3,314.5l-27,25.9c-7.3,7-16.9,10.9-27,10.9h-25c13.2,0,23.9-10.7,23.9-23.9c0-13.2-10.7-23.9-23.9-23.9
	c-13.2,0-23.9,10.7-23.9,23.9c0,13.2,10.7,23.9,23.9,23.9h-88.1c10.2,0,18.6-8.3,18.6-18.6s-8.3-18.6-18.6-18.6
	c-10.2,0-18.5,8.3-18.5,18.6s8.3,18.6,18.5,18.6h-82.4c12.4,0,22.5-10.1,22.5-22.5c0-12.4-10.1-22.5-22.5-22.5
	c-12.4,0-22.5,10.1-22.5,22.5c0,12.4,10.1,22.5,22.5,22.5h-16.6c-5.9,0-11.8-1.2-17.3-3.4l-48.9-23.6c2.2,0.8,4.6,1.2,7.1,1.2
	c11.4,0,20.7-9.3,20.7-20.7c0-11.4-9.3-20.7-20.7-20.7l315.8-0.6c-9.4,0-16.9,7.6-16.9,16.9c0,9.4,7.6,16.9,16.9,16.9
	C421.3,317.4,424.6,316.3,427.3,314.5z"/>
<g>
	<path class="st7" d="M177.7,358.2c-16.2,0-29.4-13.2-29.4-29.4c0-16.2,13.2-29.4,29.4-29.4c16.2,0,29.4,13.2,29.4,29.4
		C207.1,345,193.9,358.2,177.7,358.2z M177.7,313.3c-8.6,0-15.6,7-15.6,15.6c0,8.6,7,15.6,15.6,15.6c8.6,0,15.6-7,15.6-15.6
		C193.3,320.3,186.3,313.3,177.7,313.3z"/>
	<path class="st7" d="M260.2,358.2c-14,0-25.4-11.4-25.4-25.4s11.4-25.4,25.4-25.4c14,0,25.4,11.4,25.4,25.4
		C285.6,346.8,274.2,358.2,260.2,358.2z M260.2,321.1c-6.4,0-11.6,5.2-11.6,11.7c0,6.4,5.2,11.7,11.6,11.7c6.4,0,11.7-5.2,11.7-11.7
		C271.8,326.3,266.6,321.1,260.2,321.1z"/>
	<path class="st7" d="M348.3,358.2c-17,0-30.8-13.8-30.8-30.8c0-17,13.8-30.8,30.8-30.8c17,0,30.8,13.8,30.8,30.8
		C379.1,344.4,365.2,358.2,348.3,358.2z M348.3,310.4c-9.4,0-17,7.6-17,17c0,9.4,7.6,17,17,17c9.4,0,17-7.6,17-17
		C365.3,318,357.6,310.4,348.3,310.4z"/>
	<path class="st7" d="M417.8,324.3c-13.1,0-23.8-10.7-23.8-23.8s10.7-23.8,23.8-23.8c13.1,0,23.8,10.7,23.8,23.8
		c0,7.9-3.9,15.3-10.4,19.7C427.2,322.9,422.6,324.3,417.8,324.3z M417.8,290.5c-5.5,0-10,4.5-10,10c0,5.5,4.5,10,10,10
		c2,0,4-0.6,5.6-1.7c0,0,0,0,0,0c2.8-1.9,4.4-5,4.4-8.3C427.8,295,423.3,290.5,417.8,290.5z"/>
	<path class="st7" d="M102,332.5c-3.2,0-6.4-0.6-9.4-1.6c-0.1,0-0.1,0-0.2-0.1c-10.8-4-18-14.4-18-25.9c0-15.2,12.4-27.6,27.6-27.6
		c15.2,0,27.6,12.4,27.6,27.6C129.6,320.1,117.2,332.5,102,332.5z M97.4,317.9c1.5,0.5,3,0.8,4.6,0.8c7.6,0,13.8-6.2,13.8-13.8
		s-6.2-13.8-13.8-13.8s-13.8,6.2-13.8,13.8c0,5.8,3.6,10.9,9,12.9C97.2,317.9,97.3,317.9,97.4,317.9z"/>
	<path class="st7" d="M373.3,358.2H161.1c-6.8,0-13.5-1.3-19.9-3.9c-0.1-0.1-0.3-0.1-0.4-0.2l-48.6-23.4
		c-10.7-4-17.8-14.4-17.8-25.8c0-15.2,12.4-27.6,27.6-27.6l315.8-0.6c0,0,0,0,0,0c13.1,0,23.8,10.7,23.8,23.8
		c0,7.7-3.7,14.9-9.9,19.3L405,345.4C396.4,353.6,385.2,358.2,373.3,358.2z M146.6,341.6c4.7,1.9,9.5,2.8,14.5,2.8h212.1
		c8.3,0,16.2-3.2,22.2-8.9l27-25.9c0.3-0.3,0.6-0.5,0.9-0.7c2.8-1.9,4.4-5,4.4-8.3c0-5.5-4.5-10-10-10L102,291.1
		c-7.6,0-13.8,6.2-13.8,13.8c0,5.7,3.6,10.9,9,12.9c0.3,0.1,0.5,0.2,0.8,0.3L146.6,341.6z"/>
</g>
<path class="st0" d="M251.9,162.9h-31.4v0.3l-15.2-8.8c-1.4-0.8-3.1-0.8-4.4,0c-1.4,0.8-2.2,2.2-2.2,3.8v27.5c0,1.6,0.8,3,2.2,3.8
	c0.7,0.4,1.4,0.6,2.2,0.6c0.8,0,1.5-0.2,2.2-0.6l15.2-8.8v0.3h31.4c1.9,0,3.5-1.6,3.5-3.5v-11.1
	C255.5,164.5,253.9,162.9,251.9,162.9z M207.5,178.1v-12.2l10.5,6.1L207.5,178.1z"/>
</svg>
