<?xml version="1.0" encoding="utf-8"?>
<!-- Generator: Adobe Illustrator 19.2.1, SVG Export Plug-In . SVG Version: 6.00 Build 0)  -->
<svg version="1.1" id="Capa_1" xmlns="http://www.w3.org/2000/svg" xmlns:xlink="http://www.w3.org/1999/xlink" x="0px" y="0px"
	 viewBox="0 0 120 120" style="enable-background:new 0 0 120 120;" xml:space="preserve">
<style type="text/css">
	.st0{fill:#949493;}
	.st1{fill:#C7CAC7;}
	.st2{fill:#E7ECED;}
	.st3{fill:#556080;}
	.st4{fill:#B02721;}
</style>
<g>
	<rect x="87.6" y="68.6" class="st0" width="8.3" height="31.4"/>
	<polyline class="st1" points="32.4,95.7 87.6,95.7 87.6,72.9 32.4,72.9 	"/>
	<rect x="95.9" y="72.9" class="st1" width="4.1" height="22.9"/>
	<rect x="24.1" y="68.6" class="st0" width="8.3" height="31.4"/>
	<rect x="20" y="72.9" class="st1" width="4.1" height="22.9"/>
	<rect x="39.3" y="64.3" class="st2" width="41.4" height="8.6"/>
	<rect x="43.4" y="60" class="st1" width="33.1" height="4.3"/>
	<rect x="53.1" y="48.6" class="st0" width="13.8" height="11.4"/>
	<rect x="57.2" y="35.7" class="st3" width="5.5" height="12.9"/>
	<path class="st4" d="M64.9,22.5l-0.3,0.3c-1.2,1.3-2.9,2-4.7,2l0,0c-1.8,0-3.4-0.7-4.7-2L55,22.5c-1.2-1.3-2.9-2-4.7-2H43
		c-3.6,0-6.5,3-6.5,6.7v6.4c0,3.7,2.9,6.7,6.5,6.7H53V36h13.8v4.3h10.1c3.6,0,6.5-3,6.5-6.7v-6.4c0-3.7-2.9-6.7-6.5-6.7h-7.3
		C67.9,20.5,66.1,21.2,64.9,22.5z"/>
	<path class="st3" d="M60,25.1c0.7,0,1.4-0.2,2-0.4v-3.6h-4v3.6C58.6,24.9,59.3,25.1,60,25.1z"/>
</g>
</svg>
