<?xml version="1.0" encoding="utf-8"?>
<!-- Generator: Adobe Illustrator 19.2.1, SVG Export Plug-In . SVG Version: 6.00 Build 0)  -->
<svg version="1.1" id="Layer_1" xmlns="http://www.w3.org/2000/svg" xmlns:xlink="http://www.w3.org/1999/xlink" x="0px" y="0px"
	 viewBox="0 0 120 120" style="enable-background:new 0 0 120 120;" xml:space="preserve">
<style type="text/css">
	.st0{fill:#D22856;}
	.st1{fill:#2B3B4E;}
	.st2{fill:#324A5E;}
	.st3{fill:#E6E9EE;}
</style>
<rect x="90.7" y="29.1" class="st0" width="0.7" height="49"/>
<path class="st1" d="M76.4,82.5l-13.6-6.7l9-4.6c0.5-0.3,0.6-0.8,0.4-1.1c-0.2-0.3-0.5-0.4-0.7-0.4l-9.1-6.7l6.6-4.8
	c0.3-0.2,0.4-0.5,0.3-0.8c-0.1-0.3-0.4-0.5-0.7-0.5H53.7c-0.4,0-0.6,0.2-0.7,0.5c-0.1,0.3,0,0.6,0.3,0.8l6.6,4.8l-9.3,6.9l-0.2-0.1
	c-0.5-0.3-1-0.1-1.2,0.4c-0.2,0.4-0.1,1,0.4,1.1l9.4,4.7l-13.2,6.7c-0.4,0.2-0.5,0.6-0.5,1s0.5,0.7,0.9,0.7h29.9
	c0.5,0,0.8-0.3,0.9-0.7C77,83.1,76.8,82.8,76.4,82.5z M55.9,58.2h10.2l-5.1,3.7L55.9,58.2z M61.1,63.8l8.1,5.9H53L61.1,63.8z
	 M53.4,71.1h14.7l-7.2,3.7L53.4,71.1z M49.8,82.4l11.1-5.7l11.4,5.7H49.8z"/>
<path class="st2" d="M41.6,100c-0.2,0-0.4,0-0.5-0.1c-0.9-0.3-1.5-1.2-1.2-2.2l19.5-61c0.3-0.7,0.9-1.2,1.7-1.2s1.5,0.5,1.7,1.2
	l19.5,61c0.3,0.9-0.3,1.9-1.2,2.2c-0.9,0.3-2-0.3-2.3-1.1L61.1,43.1L43.3,98.8C43.1,99.6,42.4,100,41.6,100z"/>
<path class="st3" d="M33.5,37.2c20.3-4,40.7-8,61-12l1.6,7.8c-20.5,4-40.9,8-61.4,12C34.4,42.5,34,39.8,33.5,37.2z"/>
<rect x="86.1" y="78.3" class="st1" width="9.8" height="16.5"/>
<path class="st2" d="M97.1,79.8H85c-1.6,0-2.9-1.2-2.9-2.8v-1.6c0-1.6,1.3-2.8,2.9-2.8h12.1c1.6,0,2.9,1.2,2.9,2.8V77
	C99.9,78.5,98.6,79.8,97.1,79.8z"/>
<path class="st0" d="M38.5,44.4c-0.7,0.1-1.5,0.3-2.2,0.4c-0.3-2.6-0.6-5.3-1-7.9c0.8-0.2,1.7-0.3,2.5-0.5c-0.2-1.4-0.4-2.8-0.6-4.2
	c-3.5-4.1-7.1-8.1-10.6-12.2c-2.1,3.1-7.4,12.1-6.4,24.1C21.7,62.7,37.2,72.7,39.2,74c0.6-0.3,1.2-0.5,1.8-0.8
	C40.2,63.6,39.3,54,38.5,44.4z M22.8,40c-0.7-8,2.9-14,4.3-16.1c2.4,2.7,4.7,5.4,7.1,8.1c0.1,0.4,0.1,0.9,0.2,1.3
	C33.8,33.5,22.8,40.3,22.8,40z M23,44.8c-0.1-1-0.1-2-0.1-2.8c3.2-1.7,6.5-3.5,9.7-5.3c0.2,1.2,0.4,2.5,0.5,3.7
	c0.3,2.1,0.6,4.2,0.9,6.4c-3.5,0.2-7,0.3-10.5,0.5C23.3,46.7,23.1,45.8,23,44.8z M35.2,68.2c-2.4-2.2-5.5-5.6-8.1-10.4
	c-1.6-3.1-2.6-6-3.2-8.4c4.2-0.1,8.3-0.3,12.5-0.4c0.6,6.5,1.2,12.9,1.9,19.4C37.2,68.3,36.2,68.2,35.2,68.2z"/>
</svg>
