<?xml version="1.0" encoding="utf-8"?>
<!-- Generator: Adobe Illustrator 19.2.1, SVG Export Plug-In . SVG Version: 6.00 Build 0)  -->
<svg version="1.1" id="Layer_1" xmlns="http://www.w3.org/2000/svg" xmlns:xlink="http://www.w3.org/1999/xlink" x="0px" y="0px"
	 viewBox="0 0 455.7 455.7" style="enable-background:new 0 0 455.7 455.7;" xml:space="preserve">
<style type="text/css">
	.st0{fill:#FFFFFF;}
</style>
<g>
	<path class="st0" d="M303.4,75.5h-151c-42.4,0-76.9,34.5-76.9,76.9v151c0,42.4,34.5,76.9,76.9,76.9h151c42.4,0,76.9-34.5,76.9-76.9
		v-151C380.3,110,345.8,75.5,303.4,75.5z M347.2,303.3c0,24.1-19.6,43.7-43.7,43.7h-151c-24.1,0-43.7-19.6-43.7-43.7v-151
		c0-24.1,19.6-43.7,43.7-43.7h151c24.1,0,43.7,19.6,43.7,43.7V303.3z"/>
	<path class="st0" d="M306.5,168c-10.2,0-18.6-8.3-18.6-18.6s8.3-18.6,18.6-18.6s18.6,8.3,18.6,18.6S316.7,168,306.5,168z"/>
	<path class="st0" d="M228,149.4c-43.3,0-78.5,35.2-78.5,78.5c0,43.3,35.2,78.5,78.5,78.5c43.2,0,78.5-35.3,78.5-78.5
		C306.5,184.5,271.3,149.4,228,149.4z M228,273.1c-25,0-45.3-20.3-45.3-45.3s20.3-45.3,45.3-45.3s45.3,20.3,45.3,45.3
		C273.3,252.9,253,273.1,228,273.1z"/>
</g>
</svg>
