<?xml version="1.0" encoding="utf-8"?>
<!-- Generator: Adobe Illustrator 19.2.1, SVG Export Plug-In . SVG Version: 6.00 Build 0)  -->
<svg version="1.1" id="Слой_1" xmlns="http://www.w3.org/2000/svg" xmlns:xlink="http://www.w3.org/1999/xlink" x="0px" y="0px"
	 viewBox="0 0 455.7 455.7" style="enable-background:new 0 0 455.7 455.7;" xml:space="preserve">
<style type="text/css">
	.st0{fill:#FFFFFF;}
</style>
<g>
	<path class="st0" d="M227.9,110.2c19.7,0,35.8,16.1,35.8,35.8s-16.1,35.8-35.8,35.8s-35.8-16.1-35.8-35.8
		C192.1,126.2,208.1,110.2,227.9,110.2z M227.9,232.4c47.7,0,86.4-38.8,86.4-86.4c0-47.7-38.8-86.4-86.4-86.4
		c-47.7,0-86.4,38.8-86.4,86.4C141.4,193.6,180.2,232.4,227.9,232.4"/>
	<path class="st0" d="M262.8,304.6c17.6-4,34.6-11,50.2-20.8c11.8-7.5,15.4-23.1,7.9-34.9c-7.4-11.8-23.1-15.4-34.9-8
		c-35.4,22.3-81,22.2-116.4,0c-11.8-7.5-27.5-3.9-34.9,8c-7.5,11.8-3.9,27.5,7.9,34.9c15.6,9.8,32.6,16.8,50.2,20.8L144.6,353
		c-9.9,9.9-9.9,25.9,0,35.8c4.9,4.9,11.4,7.4,17.9,7.4s13-2.5,17.9-7.4l47.5-47.5l47.5,47.5c9.9,9.9,25.9,9.9,35.8,0
		s9.9-25.9,0-35.8L262.8,304.6"/>
</g>
</svg>
