<?xml version="1.0" encoding="utf-8"?>
<!-- Generator: Adobe Illustrator 19.2.1, SVG Export Plug-In . SVG Version: 6.00 Build 0)  -->
<svg version="1.1" id="Capa_1" xmlns="http://www.w3.org/2000/svg" xmlns:xlink="http://www.w3.org/1999/xlink" x="0px" y="0px"
	 viewBox="0 0 455.7 455.7" style="enable-background:new 0 0 455.7 455.7;" xml:space="preserve">
<style type="text/css">
	.st0{fill:#FFFFFF;}
</style>
<g>
	<path class="st0" d="M118.1,138.7c10.9,27,24.8,52.4,43,75.2c2.4,3,5.5,5.7,8.7,7.9c4.7,3.2,9.1,2.1,11-3.3c2-5.6,3.9-17,4-23
		c0.3-15.4,0-25.6-0.9-41c-0.5-9.9-4.1-18.6-18.6-21.2c-4.5-0.8-4.9-4.5-2-8.2c6-7.7,14.4-8.9,23.4-9.4c14.7-0.8,29.5-0.1,44.2,0
		c6,0.1,12,0.5,17.9,1.8c7.7,1.7,11.8,7.1,13.1,14.6c0.7,3.9,1,7.9,0.9,11.8c-0.4,16.9-1.2,33.7-1.4,50.6
		c-0.1,6.6,0.4,13.4,1.8,19.8c2,9,8.1,11.2,14.3,4.7c7.9-8.2,14.9-17.5,21.5-26.9c11.9-17.1,20.8-35.9,28.5-55.3
		c4-10,7-12.2,17.8-12.2c20.2,0,40.4-0.1,60.7,0c3.6,0,7.3,0.4,10.7,1.4c5.5,1.8,7.7,6.2,6.4,11.9c-3,13.3-10.2,24.6-17.9,35.5
		c-12.4,17.5-25.3,34.5-38,51.8c-1.6,2.2-3,4.5-4.4,6.9c-4.7,8.6-4.4,13.4,2.5,20.5c11,11.3,22.8,22,33.4,33.6
		c7.7,8.5,14.9,17.7,21,27.4c7.8,12.2,3,23.8-11.5,25.8c-9.1,1.3-53.6,0-55.9,0c-12-0.1-22.5-4.2-30.9-12.3
		c-9.4-9.1-17.9-19-27-28.4c-2.7-2.8-5.6-5.6-8.8-8c-7.4-5.6-14.6-4.4-18.1,4.3c-2.9,7.4-5.5,27-5.6,28.7c-0.6,8.7-6.2,14.3-16,14.8
		c-28.2,1.5-55.6-1.6-81.1-15.3c-21.6-11.6-38.9-27.9-53.8-47c-23.7-30.3-42.5-63.6-59.6-97.9c-0.9-1.8-18.2-38.7-18.7-40.4
		c-1.5-5.8-0.1-11.4,4.8-13.3c3.1-1.2,60.2,0,61.2,0C108,125.4,114.2,129.2,118.1,138.7z"/>
</g>
</svg>
