<?xml version="1.0" encoding="utf-8"?>
<!-- Generator: Adobe Illustrator 19.2.1, SVG Export Plug-In . SVG Version: 6.00 Build 0)  -->
<svg version="1.1" id="Layer_1" xmlns="http://www.w3.org/2000/svg" xmlns:xlink="http://www.w3.org/1999/xlink" x="0px" y="0px"
	 viewBox="0 0 1306 512" style="enable-background:new 0 0 1306 512;" xml:space="preserve">
<style type="text/css">
	.st0{fill:#B8D7E0;}
	.st1{fill:#C3E6ED;}
	.st2{fill:#9FC3CC;}
	.st3{fill:#118DEA;}
	.st4{fill:#0977DB;}
	.st5{fill:#0772DD;}
	.st6{fill:#88AEB7;}
	.st7{fill:#698D93;}
	.st8{fill:#FFFFFF;}
	.st9{fill:#050000;}
	.st10{fill:none;stroke:#000000;stroke-width:7;stroke-miterlimit:10;}
</style>
<g>
	<polygon class="st0" points="361.6,489.8 80,489.8 120,137.8 321.6,137.8 	"/>
	<polygon class="st1" points="120,137.8 80,489.8 91.2,489.8 131.2,137.8 	"/>
	<polyline class="st2" points="116.8,137.8 321.6,137.8 360,489.8 	"/>
	<path class="st3" d="M372.8,494.6c0,6.4-4.8,11.2-11.2,11.2H80c-6.4,0-11.2-4.8-11.2-11.2v-2.4c0-6.4,4.8-11.2,11.2-11.2h281.6
		c6.4,0,11.2,4.8,11.2,11.2L372.8,494.6L372.8,494.6z"/>
	<path class="st4" d="M372.8,493.8L372.8,493.8c0,6.4-4.8,12-11.2,12H80c-6.4,0-11.2-5.6-11.2-11.2l0,0"/>
	<path class="st3" d="M279.2,41.8c6.4,0,13.6,7.2,13.6,13.6v34.4c0,6.4-7.2,8-13.6,8H162.4c-6.4,0-13.6-1.6-13.6-8V55.4
		c0-6.4,7.2-13.6,13.6-13.6h114.4 M279.2,9.8H162.4c-24,0-45.6,21.6-45.6,45.6v66.4c0,24,21.6,8,45.6,8H280c24,0,45.6,16,45.6-8
		V55.4C324.8,31.4,303.2,9.8,279.2,9.8L279.2,9.8z"/>
	<g>
		<path class="st5" d="M151.2,49c2.4-4,6.4-7.2,11.2-7.2h32.8H280h32.8c4.8,0,8.8,3.2,10.4,7.2c-2.4-22.4-20.8-39.2-44-39.2h-84.8
			C172,9.8,153.6,26.6,151.2,49z"/>
		<path class="st5" d="M320.8,132.2c1.6-2.4,4-4,4-10.4v-28c0,4.8-7.2,4-12.8,4h-32.8h-84.8h-32.8c-4.8,0-12.8,0.8-12.8-4v28
			c0,5.6,2.4,8,4.8,10.4c2.4,0,6.4-2.4,8.8-2.4h32.8H280h32.8C314.4,129.8,318.4,131.4,320.8,132.2z"/>
	</g>
	<path class="st3" d="M330.4,133.8c0,4.8-4,12-9.6,12h-200c-4.8,0-9.6-7.2-9.6-12l0,0c0-4.8,4-12,9.6-12h200
		C325.6,121.8,330.4,129,330.4,133.8L330.4,133.8z"/>
	<path class="st6" d="M148,275.4c0,7.2-4,13.6-8.8,13.6s-8.8-6.4-8.8-13.6s4-20.8,8.8-20.8C144.8,254.6,148,268.2,148,275.4z"/>
	<path class="st1" d="M148,275.4c0,7.2-4,29.6-8.8,29.6s-8.8-21.6-8.8-29.6c0-7.2,4-13.6,8.8-13.6C144.8,261.8,148,268.2,148,275.4z
		"/>
	<ellipse class="st7" cx="140" cy="275.4" rx="8.8" ry="13.6"/>
	<path class="st6" d="M188,275.4c0,7.2-4,13.6-8.8,13.6s-8.8-6.4-8.8-13.6s4-20.8,8.8-20.8C184.8,254.6,188,268.2,188,275.4z"/>
	<path class="st1" d="M188,275.4c0,7.2-4,29.6-8.8,29.6s-8.8-21.6-8.8-29.6c0-7.2,4-13.6,8.8-13.6C184.8,261.8,188,268.2,188,275.4z
		"/>
	<ellipse class="st7" cx="180" cy="275.4" rx="8.8" ry="13.6"/>
	<path class="st6" d="M228,275.4c0,7.2-4,13.6-8.8,13.6s-8.8-6.4-8.8-13.6s4-20.8,8.8-20.8C224.8,254.6,228,268.2,228,275.4z"/>
	<path class="st1" d="M228,275.4c0,7.2-4,29.6-8.8,29.6s-8.8-21.6-8.8-29.6c0-7.2,4-13.6,8.8-13.6C224.8,261.8,228,268.2,228,275.4z
		"/>
	<ellipse class="st7" cx="220" cy="275.4" rx="8.8" ry="13.6"/>
	<path class="st6" d="M268,275.4c0,7.2-4,13.6-8.8,13.6c-4.8,0-8.8-6.4-8.8-13.6s4-20.8,8.8-20.8C264.8,254.6,268,268.2,268,275.4z"
		/>
	<path class="st1" d="M268,275.4c0,7.2-4,29.6-8.8,29.6c-4.8,0-8.8-21.6-8.8-29.6c0-7.2,4-13.6,8.8-13.6
		C264.8,261.8,268,268.2,268,275.4z"/>
	<ellipse class="st7" cx="260" cy="275.4" rx="8.8" ry="13.6"/>
	<path class="st6" d="M308,275.4c0,7.2-4,13.6-8.8,13.6s-8.8-6.4-8.8-13.6s4-20.8,8.8-20.8C304.8,254.6,308,268.2,308,275.4z"/>
	<path class="st1" d="M308,275.4c0,7.2-4,29.6-8.8,29.6s-8.8-21.6-8.8-29.6c0-7.2,4-13.6,8.8-13.6C304.8,261.8,308,268.2,308,275.4z
		"/>
	<ellipse class="st7" cx="300" cy="275.4" rx="8.8" ry="13.6"/>
	<path class="st6" d="M129.6,346.6c0,7.2-4,13.6-8.8,13.6s-8.8-6.4-8.8-13.6s4-20.8,8.8-20.8C125.6,326.6,129.6,339.4,129.6,346.6z"
		/>
	<path class="st1" d="M129.6,346.6c0,7.2-4,29.6-8.8,29.6s-8.8-21.6-8.8-29.6s4-13.6,8.8-13.6C125.6,333.8,129.6,339.4,129.6,346.6z
		"/>
	<ellipse class="st7" cx="120.8" cy="346.6" rx="8.8" ry="13.6"/>
	<path class="st6" d="M169.6,346.6c0,7.2-4,13.6-8.8,13.6s-8.8-6.4-8.8-13.6s4-20.8,8.8-20.8C165.6,326.6,169.6,339.4,169.6,346.6z"
		/>
	<path class="st1" d="M169.6,346.6c0,7.2-4,29.6-8.8,29.6s-8.8-21.6-8.8-29.6s4-13.6,8.8-13.6C165.6,333.8,169.6,339.4,169.6,346.6z
		"/>
	<ellipse class="st7" cx="160.8" cy="346.6" rx="8.8" ry="13.6"/>
	<path class="st6" d="M209.6,346.6c0,7.2-4,13.6-8.8,13.6s-8.8-6.4-8.8-13.6s4-20.8,8.8-20.8S209.6,339.4,209.6,346.6z"/>
	<path class="st1" d="M209.6,346.6c0,7.2-4,29.6-8.8,29.6s-8.8-21.6-8.8-29.6s4-13.6,8.8-13.6S209.6,339.4,209.6,346.6z"/>
	<ellipse class="st7" cx="200.8" cy="346.6" rx="8.8" ry="13.6"/>
	<path class="st6" d="M249.6,346.6c0,7.2-4,13.6-8.8,13.6s-8.8-6.4-8.8-13.6s4-20.8,8.8-20.8S249.6,339.4,249.6,346.6z"/>
	<path class="st1" d="M249.6,346.6c0,7.2-4,29.6-8.8,29.6s-8.8-21.6-8.8-29.6s4-13.6,8.8-13.6S249.6,339.4,249.6,346.6z"/>
	<ellipse class="st7" cx="240.8" cy="346.6" rx="8.8" ry="13.6"/>
	<path class="st6" d="M289.6,346.6c0,7.2-4,13.6-8.8,13.6s-8.8-6.4-8.8-13.6s4-20.8,8.8-20.8S289.6,339.4,289.6,346.6z"/>
	<path class="st1" d="M289.6,346.6c0,7.2-4,29.6-8.8,29.6s-8.8-21.6-8.8-29.6s4-13.6,8.8-13.6S289.6,339.4,289.6,346.6z"/>
	<ellipse class="st7" cx="280.8" cy="346.6" rx="8.8" ry="13.6"/>
	<path class="st6" d="M329.6,346.6c0,7.2-4,13.6-8.8,13.6s-8.8-6.4-8.8-13.6s4-20.8,8.8-20.8C325.6,326.6,329.6,339.4,329.6,346.6z"
		/>
	<path class="st1" d="M329.6,346.6c0,7.2-4,29.6-8.8,29.6s-8.8-21.6-8.8-29.6s4-13.6,8.8-13.6C325.6,333.8,329.6,339.4,329.6,346.6z
		"/>
	<ellipse class="st7" cx="320.8" cy="346.6" rx="8.8" ry="13.6"/>
	<path class="st6" d="M146.4,418.6c0,7.2-4,13.6-8.8,13.6s-8.8-6.4-8.8-13.6s4-20.8,8.8-20.8S146.4,411.4,146.4,418.6z"/>
	<path class="st1" d="M146.4,418.6c0,7.2-4,29.6-8.8,29.6s-8.8-21.6-8.8-29.6s4-13.6,8.8-13.6S146.4,411.4,146.4,418.6z"/>
	<ellipse class="st7" cx="137.6" cy="418.6" rx="8.8" ry="13.6"/>
	<path class="st6" d="M186.4,418.6c0,7.2-4,13.6-8.8,13.6s-8.8-6.4-8.8-13.6s4-20.8,8.8-20.8S186.4,411.4,186.4,418.6z"/>
	<path class="st1" d="M186.4,418.6c0,7.2-4,29.6-8.8,29.6s-8.8-21.6-8.8-29.6s4-13.6,8.8-13.6S186.4,411.4,186.4,418.6z"/>
	<ellipse class="st7" cx="177.6" cy="418.6" rx="8.8" ry="13.6"/>
	<path class="st6" d="M226.4,418.6c0,7.2-4,13.6-8.8,13.6s-8.8-6.4-8.8-13.6s4-20.8,8.8-20.8S226.4,411.4,226.4,418.6z"/>
	<path class="st1" d="M226.4,418.6c0,7.2-4,29.6-8.8,29.6s-8.8-21.6-8.8-29.6s4-13.6,8.8-13.6S226.4,411.4,226.4,418.6z"/>
	<ellipse class="st7" cx="217.6" cy="418.6" rx="8.8" ry="13.6"/>
	<path class="st6" d="M266.4,418.6c0,7.2-4,13.6-8.8,13.6c-4.8,0-8.8-6.4-8.8-13.6s4-20.8,8.8-20.8
		C262.4,397.8,266.4,411.4,266.4,418.6z"/>
	<path class="st1" d="M266.4,418.6c0,7.2-4,29.6-8.8,29.6c-4.8,0-8.8-21.6-8.8-29.6s4-13.6,8.8-13.6
		C262.4,405,266.4,411.4,266.4,418.6z"/>
	<ellipse class="st7" cx="257.6" cy="418.6" rx="8.8" ry="13.6"/>
	<path class="st6" d="M306.4,418.6c0,7.2-4,13.6-8.8,13.6s-8.8-6.4-8.8-13.6s4-20.8,8.8-20.8S306.4,411.4,306.4,418.6z"/>
	<path class="st1" d="M306.4,418.6c0,7.2-4,29.6-8.8,29.6s-8.8-21.6-8.8-29.6s4-13.6,8.8-13.6S306.4,411.4,306.4,418.6z"/>
	<ellipse class="st7" cx="297.6" cy="418.6" rx="8.8" ry="13.6"/>
	<circle class="st8" cx="178.8" cy="217.6" r="32.4"/>
	<circle class="st9" cx="178.8" cy="217.6" r="14.8"/>
	<circle class="st8" cx="260" cy="217.6" r="32.4"/>
	<circle class="st9" cx="260" cy="217.6" r="14.8"/>
	<line class="st10" x1="146.4" y1="160.7" x2="211.2" y2="185.2"/>
	<line class="st10" x1="227.8" y1="191" x2="296.1" y2="179.4"/>
</g>
<g>
	<path d="M407.4,66.5h145v51h-62.1v328.9h-20.7V117.5h-62.3L407.4,66.5L407.4,66.5z"/>
	<path d="M573.2,66.5H706v51H593.9v110.9h108.3v51H593.9v115.9H706v51H573.2V66.5z"/>
	<path d="M735.1,446.4V66.5h113.2c12.3,0,21.9,10,28.9,30.1s10.4,50.5,10.4,91.4s-3.5,71.2-10.6,91.1s-16.9,29.8-29.5,29.8h-91.7
		v137.5H735.1z M755.8,257.8h91.7c5.9,0,10.7-5.6,14.2-16.8s5.3-28.9,5.3-53.1s-1.7-42-5.2-53.4c-3.4-11.4-8.3-17.1-14.5-17.1h-91.5
		V257.8z"/>
	<path d="M921.4,446.4V66.5h20.7v154.2h20.7l84-154.2h35.5L985,245.6l103.6,200.8h-34.1l-91.7-174.7h-20.7v174.7L921.4,446.4
		L921.4,446.4z"/>
	<path d="M1282.8,446.4h-20.7v-330l-118,330h-31.2V66.5h20.7v333.3l119-333.3h30.2V446.4z"/>
</g>
<circle class="st9" cx="599" cy="41.8" r="14.8"/>
<circle class="st9" cx="680.2" cy="41.8" r="14.8"/>
</svg>
