<?xml version="1.0" encoding="utf-8"?>
<!-- Generator: Adobe Illustrator 19.2.1, SVG Export Plug-In . SVG Version: 6.00 Build 0)  -->
<svg version="1.1" id="Слой_1" xmlns="http://www.w3.org/2000/svg" xmlns:xlink="http://www.w3.org/1999/xlink" x="0px" y="0px"
	 viewBox="0 0 190.9 94.6" style="enable-background:new 0 0 190.9 94.6;" xml:space="preserve">
<style type="text/css">
	.st0{fill:#FFFFFF;}
	.st1{fill:#D22856;}
	.st2{display:none;fill:#2E2E2E;}
	.st3{fill:url(#SVGID_1_);}
</style>
<g>
	<g>
		<path class="st0" d="M76.2,36.1H98L94.4,42H87L66.2,77.2h-7.1L80,42h-7.4L76.2,36.1z M89.7,77.2c0.1-0.3,0.1-0.6,0.2-0.8
			c0.1-0.2,0.2-0.6,0.3-0.9c0.2-0.4,0.4-0.8,0.7-1.3c0.3-0.6,0.7-1.2,1.1-2.1l3.8-6.5c1.1-1.9,1.6-3.2,1.3-4
			c-0.3-0.8-1.2-1.1-2.9-1.1h-2.4l-9.9,16.7h-7.1L99.3,36h10.6c3.6,0,5.8,0.8,6.6,2.4c0.7,1.5,0.1,3.9-1.7,7.1l-1.9,3.2
			c-2.5,4.2-5.7,7-9.6,8.3c1.4,0.7,2,1.7,1.7,3.2c-0.2,1.5-1,3.3-2.3,5.5L99,72.2c-0.6,1.1-1.1,1.9-1.4,2.7
			c-0.4,0.8-0.6,1.5-0.8,2.3H89.7L89.7,77.2z M102.9,42l-7.5,12.6h2.8c1.3,0,2.6-0.3,3.6-1c1.1-0.7,2.2-1.7,3.2-3.4l2.4-4
			c0.9-1.5,1.2-2.6,1.1-3.2c-0.2-0.7-0.9-1-2.1-1C106.4,42,102.9,42,102.9,42z M122.8,77.2h-7.1l3.2-7.5h-8.6l-5.6,7.5h-6.5
			L129.8,36h10.3L122.8,77.2z M114.5,64.1h6.8l9-20.8L114.5,64.1z M148.5,47.4l-17.8,29.8h-6.3L148.9,36h8.8l-7.4,24.7L165,36.1h6.3
			l-24.5,41.2h-7.3L148.5,47.4z M167.5,46c2-3.3,4.4-5.9,7.2-7.6c2.8-1.8,5.9-2.7,9.4-2.7c3.4,0,5.5,0.9,6.2,2.7s0,4.3-2,7.6l-1,1.6
			h-6.7l1.1-2c0.9-1.5,1.2-2.6,1-3.2c-0.3-0.6-1-1-2-1c-1.1,0-2.2,0.3-3.2,1c-1,0.6-1.9,1.6-2.8,3.2c-0.9,1.4-1.2,2.7-1.1,3.7
			c0,1.1,0.3,2.1,0.8,3.1s1,1.9,1.6,2.9s1.1,2,1.4,3.2c0.4,1.1,0.5,2.4,0.3,3.9c-0.2,1.4-0.9,3.2-2,5.2c-2,3.3-4.4,5.9-7.2,7.6
			c-2.9,1.8-6,2.7-9.5,2.7c-3.4,0-5.5-0.9-6.2-2.7c-0.7-1.8-0.1-4.3,1.9-7.6l1.7-2.9h6.7l-1.9,3.2c-0.9,1.5-1.1,2.6-0.9,3.2
			s1.1,0.9,2.1,0.9c1.1,0,2.2-0.3,3.2-0.9c1.1-0.6,2-1.6,2.9-3.2c0.9-1.4,1.2-2.7,1.2-3.7s-0.3-2.1-0.8-3.1s-1-1.9-1.6-2.9
			s-1.1-2-1.4-3.2c-0.4-1.1-0.5-2.4-0.3-3.9C165.7,49.6,166.4,47.9,167.5,46z"/>
		<path class="st1" d="M64.1,43.9H44.3c0,2.4,0,4.9,0,7.3c6.5,0,13,0,19.5,0c-3.6,6.2-7.4,12.3-11,18.5c-1.8,0-3.5,0-5.4,0
			c-1.7,0-4-0.2-6.7-1.1c-3.1-1-5.3-2.3-6.1-2.9c-2.1-1.4-3.5-2.9-4.1-3.4c-0.4-0.4-1.6-1.8-2.8-3.7c-2.7-4.6-3.1-9.2-3.1-10.4
			C24.4,42.4,26.3,38,27,36.8c0.6-1.1,1.9-3.6,4.4-6.1c1.6-1.5,3.1-2.5,3.6-3c0.5-0.3,2.2-1.3,4.7-2.3c2.5-0.9,4.5-1.1,5.3-1.2
			c1.3-0.2,3.2-0.2,5.2,0c2.7,0.3,4.8,1.1,5.8,1.5c2.9,1.1,4.9,2.7,6.1,3.7c2.2,1.9,3.6,3.8,4.6,5.3c3,0,5.8,0,8.8,0
			c-0.6-1.3-1.5-3.2-2.9-5.1c-2.6-3.7-5.4-6.1-7.3-7.5c-3.4-2.5-6.5-3.6-8-4.2c-1.3-0.5-5-1.5-9.7-1.5c-9.6,0-16.3,4.6-17.5,5.4
			c-1.6,1.1-7.8,5.7-11,14.2c-0.6,1.5-1.9,5.5-1.9,10.7c0,3.4,0.6,6.2,1.1,7.8c0.6,2.2,2.5,9.1,8.9,14.8c0.9,0.8,4.2,3.7,9.6,5.7
			c4.4,1.6,8.3,2,10.8,2c3,0,6,0,9,0c6.5-11,13.2-22.1,19.8-33.3C72.4,43.9,68.2,43.9,64.1,43.9z"/>
	</g>
	<path class="st2" d="M89.8,27.9c-2-4.3-4.1-7.4-5-8.4c-2-2.7-5.2-6.4-9.9-9.9c0,0-5.8-4.1-12.2-6.3C38.4-4.9,12.2,8,4.1,32.1
		C3,35.4,2.3,38.8,1.9,42.2c0,0.3-0.1,0.6-0.1,1c0,0.3,0,0.5-0.1,0.8C0.4,61.5,9.2,79,25.6,88c5.6,3.1,10.6,4.3,13,4.8
		c2.8,0.6,15.5,2.8,29-3.7c2.2-1.1,4-2.2,5.4-3.2h-9.2h-1.5h-0.8c-1.9,0.7-3.9,1.3-6.1,1.7c-10.6,2.1-19.1-0.7-22.8-2.1
		c-12-4.8-18.3-13.9-20.4-17.5c-3.9-6.6-5-12.7-5.4-15c-0.3-1.9-0.7-5.4-0.2-9.9c0.2-2,0.6-4.5,1.4-7.1c1.1-3.9,2.6-6.9,3.3-8.3
		c5.3-9.7,13.2-14.6,16-16.2c5.4-3.2,10.3-4.3,12.6-4.8c2.8-0.5,8.2-1.2,14.9-0.1c4.8,0.9,8.7,2.4,11.7,3.9
		c7.4,3.7,11.8,8.8,14,11.6c3.7,4.8,5.7,9.5,6.8,12.9c0.9,0,1.7,0,2.6,0s1.7,0,2.6,0C91.8,33,90.9,30.6,89.8,27.9z"/>
	
		<linearGradient id="SVGID_1_" gradientUnits="userSpaceOnUse" x1="46.55" y1="95.5" x2="46.55" y2="1.7" gradientTransform="matrix(1 0 0 -1 0 96)">
		<stop  offset="0" style="stop-color:#A4A2A3"/>
		<stop  offset="0.1318" style="stop-color:#B5B4B5"/>
		<stop  offset="0.2061" style="stop-color:#C1BFC1"/>
		<stop  offset="0.5856" style="stop-color:#E3E2E3"/>
		<stop  offset="0.6972" style="stop-color:#818080"/>
		<stop  offset="0.8" style="stop-color:#989999"/>
		<stop  offset="0.9394" style="stop-color:#E5E5E5"/>
		<stop  offset="1" style="stop-color:#797876"/>
	</linearGradient>
	<path class="st3" d="M71.9,80.1c-6.8,5.1-15.3,8.1-24.5,8.1c-22.5,0-40.8-18.3-40.8-40.8S24.9,6.6,47.4,6.6
		c18.2,0,33.6,11.9,38.8,28.3h6.4C87.1,15,69,0.5,47.4,0.5c-25.9,0-46.9,21-46.9,46.9s21,46.9,46.9,46.9c13.2,0,25.1-5.5,33.7-14.2
		C81.1,80.1,71.9,80.1,71.9,80.1z"/>
</g>
</svg>
