<?xml version="1.0" encoding="utf-8"?>
<!-- Generator: Adobe Illustrator 19.2.1, SVG Export Plug-In . SVG Version: 6.00 Build 0)  -->
<svg version="1.1" id="Слой_1" xmlns="http://www.w3.org/2000/svg" xmlns:xlink="http://www.w3.org/1999/xlink" x="0px" y="0px"
	 viewBox="0 0 184 65.8" style="enable-background:new 0 0 184 65.8;" xml:space="preserve">
<style type="text/css">
	.st0{fill:#FFFFFF;}
	.st1{fill:#D22856;}
</style>
<g>
	<path class="st0" d="M62.6,21.6h23.1l-3.7,6.3h-7.8L52,65.2h-7.5l22.1-37.3h-7.8L62.6,21.6z M76.8,65.2c0.1-0.3,0.1-0.6,0.2-0.8
		c0.1-0.2,0.2-0.6,0.3-0.9c0.2-0.4,0.4-0.8,0.7-1.4c0.3-0.6,0.7-1.3,1.2-2.2l4-6.9c1.2-2,1.7-3.4,1.4-4.2c-0.3-0.8-1.3-1.2-3-1.2
		h-2.5L68.7,65.2h-7.5l25.9-43.6h11.2c3.8,0,6.2,0.8,7,2.5c0.7,1.6,0.1,4.1-1.8,7.5l-2,3.4c-2.6,4.4-6.1,7.4-10.1,8.8
		c1.5,0.7,2.1,1.8,1.8,3.4c-0.2,1.6-1,3.5-2.4,5.9l-3.9,6.7c-0.6,1.1-1.1,2-1.5,2.8c-0.4,0.8-0.6,1.6-0.8,2.4h-7.6V65.2z M90.8,27.9
		l-8,13.3h2.9c1.4,0,2.7-0.3,3.8-1c1.2-0.7,2.3-1.8,3.3-3.6l2.5-4.2c0.9-1.6,1.3-2.7,1.1-3.4c-0.2-0.7-0.9-1-2.2-1H90.8z
		 M111.9,65.2h-7.5l3.4-7.9h-9.1l-6,7.9h-6.9l33.5-43.6h10.9L111.9,65.2z M103.1,51.3h7.2l9.5-22L103.1,51.3z M139.1,33.7
		l-18.8,31.5h-6.7l25.9-43.6h9.3l-7.8,26.1l15.5-26.1h6.7l-25.9,43.6h-7.7L139.1,33.7z M159.3,32.1c2.1-3.5,4.7-6.3,7.6-8.1
		c2.9-1.9,6.3-2.8,9.9-2.8c3.6,0,5.9,0.9,6.6,2.8c0.7,1.9,0,4.6-2.1,8.1l-1,1.7h-7.1l1.2-2.1c0.9-1.6,1.3-2.7,1-3.3
		c-0.3-0.6-1-1-2.1-1c-1.2,0-2.3,0.3-3.3,1c-1,0.6-2,1.7-2.9,3.3c-0.9,1.5-1.3,2.8-1.2,3.9c0,1.1,0.3,2.2,0.8,3.2s1,2,1.7,3
		c0.6,1,1.1,2.1,1.5,3.3c0.4,1.2,0.5,2.5,0.3,4.1c-0.2,1.5-0.9,3.3-2.1,5.5c-2.1,3.5-4.7,6.3-7.6,8.1c-3,1.9-6.4,2.8-10,2.8
		c-3.6,0-5.9-0.9-6.6-2.8s-0.1-4.6,2-8.1l1.8-3h7.1l-2,3.4c-0.9,1.6-1.2,2.7-0.9,3.3c0.3,0.6,1.1,0.9,2.2,0.9c1.2,0,2.3-0.3,3.3-0.9
		c1.1-0.6,2.1-1.7,3-3.3c0.9-1.5,1.3-2.8,1.3-3.9s-0.3-2.2-0.8-3.2c-0.5-1-1-2-1.7-3c-0.6-1-1.1-2.1-1.5-3.3
		c-0.4-1.2-0.5-2.5-0.3-4.1C157.3,36,158,34.2,159.3,32.1z"/>
	<path class="st1" d="M49.8,29.9H28.8c0,2.5,0,5.2,0,7.7c6.9,0,13.8,0,20.6,0c-3.8,6.6-7.8,13-11.6,19.6c-1.9,0-3.7,0-5.7,0
		c-1.8,0-4.2-0.2-7.1-1.1c-3.2-1-5.6-2.4-6.5-3c-2.2-1.5-3.7-3-4.3-3.6c-0.4-0.4-1.7-1.9-2.9-3.9c-2.8-4.9-3.2-9.7-3.2-11
		c-0.3-6.2,1.7-10.8,2.4-12c0.6-1.2,2-3.8,4.7-6.5c1.7-1.6,3.2-2.6,3.8-3.1c0.5-0.3,2.3-1.4,5-2.4c2.6-0.9,4.8-1.2,5.6-1.3
		c1.4-0.2,3.3-0.2,5.5,0c2.8,0.3,5.1,1.1,6.2,1.6c3,1.2,5.2,2.8,6.5,3.9c2.3,2,3.8,4,4.9,5.6c3.1,0,6.2,0,9.3,0
		c-0.6-1.4-1.6-3.3-3-5.4C56,10.9,53,8.4,51.1,7c-3.6-2.6-6.9-3.8-8.5-4.4C41.2,2,37.3,0.9,32.4,0.9c-10.1,0-17.3,4.9-18.5,5.7
		c-1.7,1.2-8.3,6.1-11.6,15.1c-0.6,1.6-2,5.9-2,11.3c0,3.6,0.6,6.6,1.1,8.3c0.6,2.3,2.6,9.6,9.4,15.7c0.9,0.8,4.4,3.9,10.1,6.1
		c4.7,1.7,8.8,2.1,11.4,2.1c3.1,0,6.4,0,9.5,0c7-11.8,14.1-23.6,21-35.4C58.5,29.9,54.1,29.9,49.8,29.9z"/>
</g>
</svg>
