<?xml version="1.0" encoding="utf-8"?>
<!-- Generator: Adobe Illustrator 19.2.1, SVG Export Plug-In . SVG Version: 6.00 Build 0)  -->
<svg version="1.1" id="Layer_1" xmlns="http://www.w3.org/2000/svg" xmlns:xlink="http://www.w3.org/1999/xlink" x="0px" y="0px"
	 viewBox="0 0 2255 496" style="enable-background:new 0 0 2255 496;" xml:space="preserve">
<style type="text/css">
	.st0{fill:#B8D7E0;}
	.st1{fill:#C3E6ED;}
	.st2{fill:#9FC3CC;}
	.st3{fill:#118DEA;}
	.st4{fill:#0977DB;}
	.st5{fill:#0772DD;}
	.st6{fill:#88AEB7;}
	.st7{fill:#698D93;}
	.st8{fill:#FFFFFF;}
	.st9{fill:#050000;}
	.st10{fill:none;stroke:#000000;stroke-width:7;stroke-miterlimit:10;}
</style>
<g>
	<path d="M517.1,142c0,30,2.9,47.9,8.6,53.6c5.8,5.8,23.5,8.7,53.2,8.7c27.5,0,44.3-1.7,50.3-5c7.1-4,10.6-14.8,10.6-32.4h22.1
		c0,26.1-4.9,42.5-14.7,49.3c-9.8,6.8-32.6,10.2-68.4,10.2c-36.5,0-59.6-4.8-69.3-14.4c-9.7-9.6-14.5-32.9-14.5-69.8
		c0-37.3,4.8-60.7,14.3-70.3c9.5-9.6,32.7-14.4,69.5-14.4c36.1,0,58.9,3.3,68.6,10c9.7,6.6,14.5,23.1,14.5,49.3h-22.1
		c0-17.6-3.2-28.2-9.7-31.8c-6.5-3.6-23.6-5.4-51.2-5.4c-29.8,0-47.6,2.8-53.3,8.5C519.9,93.8,517.1,111.7,517.1,142z"/>
	<path d="M690.5,59.6h141.8v22.1H712.5v48h115.6v22.1H712.5v50.2h119.7V224H690.5V59.6z"/>
	<path d="M863.2,224V59.6H984c13.1,0,23.4,4.3,30.8,13c7.4,8.7,11.1,21.9,11.1,39.5c0,17.7-3.8,30.8-11.4,39.4
		c-7.6,8.6-18.1,12.9-31.5,12.9h-97.8V224H863.2z M885.3,142.4h97.8c6.3,0,11.4-2.4,15.2-7.3c3.8-4.8,5.6-12.5,5.6-23
		c0-10.5-1.8-18.2-5.5-23.1s-8.8-7.4-15.5-7.4h-97.6V142.4z"/>
	<path d="M1061.7,59.6h22.1v60.2h97.6c13.4,0,23.8,4.1,31.2,12.2c7.9,8.8,11.9,22,11.9,39.6c0,17.8-3.6,30.9-10.9,39.5
		c-7.3,8.6-17.6,12.8-31.1,12.8h-120.8V59.6z M1083.7,141.9v60h97.6c6.5,0,11.6-2.4,15.4-7.4c3.8-4.9,5.6-12.6,5.6-23
		c0-10.3-1.8-17.8-5.5-22.5c-3.7-4.7-8.8-7.1-15.3-7.1H1083.7z"/>
	<path d="M1258.4,59.6h141.8v22.1h-119.7v48h115.6v22.1h-115.6v50.2h119.7V224h-141.8V59.6z"/>
	<path d="M1594.2,128.7c-2.5,5.3-6.6,9.8-12.2,13.4c5.3,3.2,9.3,7.6,12,13.3c2.7,5.7,4,13.2,4,22.4c0,15.7-3.2,27.1-9.7,34.3
		c-5.8,6.4-15.3,10.6-28.6,12.5c-7.8,1.1-23,1.7-45.7,1.7c-35.8,0-58.6-3.4-68.4-10.2c-9.8-6.8-14.7-23.2-14.7-49.3h22.1
		c0,17.6,3.5,28.4,10.6,32.4c6.1,3.4,22.9,5,50.4,5c24.1,0,40.4-1.7,49-5.2c8.6-3.4,12.9-10.5,12.9-21.2c0-10.2-3.2-17.4-9.5-21.4
		c-5.1-3.2-12.8-4.8-23.4-4.8h-68.2v-22.1h68.2c11.1,0,19-1.4,23.6-4.1c6.2-3.7,9.3-10.6,9.3-20.9c0-10.7-4.1-17.6-12.3-20.5
		c-8.2-3-24.7-4.4-49.6-4.4c-27.7,0-44.8,1.8-51.3,5.4c-6.5,3.6-9.7,14.2-9.7,31.8h-22.1c0-26.2,4.8-42.7,14.5-49.4
		c9.7-6.7,32.5-10.1,68.6-10.1c18,0,31,0.6,39,1.7c13.9,1.9,24.5,6.1,31.8,12.5c8.8,7.5,13.2,18.6,13.2,33.1
		C1598,115.4,1596.7,123.4,1594.2,128.7z"/>
	<path d="M1629.8,59.6h22.1v69.8h127.5V59.6h22.1V224h-22.1v-72.5h-127.5V224h-22.1V59.6z"/>
	<path d="M1839.5,59.6h22.1v60.2h97.7c13.5,0,23.9,4.1,31.1,12.2c7.8,8.8,11.7,22,11.7,39.6c0,17.8-3.7,30.9-11.1,39.5
		c-7.4,8.6-18,12.8-31.7,12.8h-119.7V59.6z M1861.6,141.9v60h97.7c6.5,0,11.6-2.4,15.2-7.4c3.7-4.9,5.5-12.6,5.5-23
		c0-10.3-1.8-17.8-5.5-22.5c-3.7-4.7-8.8-7.1-15.2-7.1H1861.6z M2053.8,224h-22.1V59.6h22.1V224z"/>
	<path d="M2087.6,59.6h141.8v22.1h-119.7v48h115.6v22.1h-115.6v50.2h119.7V224h-141.8V59.6z"/>
</g>
<g>
	<path d="M503.1,274.5H789v22.1H666.7v142.3h-40.8V296.6H503.1V274.5z"/>
	<path d="M830.2,274.5h261.9v22.1H871v48h213.5v22.1H871v50.2h221.1v22.1H830.2V274.5z"/>
	<path d="M1149.3,438.9V274.5h223.1c24.3,0,43.2,4.3,57,13c13.7,8.7,20.6,21.9,20.6,39.5c0,17.7-7,30.8-21,39.4
		c-14,8.6-33.4,12.9-58.2,12.9h-180.7v59.5H1149.3z M1190.1,357.3h180.7c11.7,0,21.1-2.4,28-7.3c6.9-4.8,10.4-12.5,10.4-23
		c0-10.5-3.4-18.2-10.2-23.1c-6.8-4.9-16.3-7.4-28.6-7.4h-180.3V357.3z"/>
	<path d="M1516.8,438.9V274.5h40.8v66.7h40.8l165.5-66.7h70L1641.9,352l204.3,86.9h-67.2l-180.7-75.6h-40.8v75.6H1516.8z"/>
	<path d="M2229.3,438.9h-40.8V296.1l-232.7,142.8h-61.6V274.5h40.8v144.2l234.7-144.2h59.6V438.9z"/>
</g>
<g>
	<polygon class="st0" points="388.8,480 107.2,480 147.2,128 348.8,128 	"/>
	<polygon class="st1" points="147.2,128 107.2,480 118.4,480 158.4,128 	"/>
	<polyline class="st2" points="144,128 348.8,128 387.2,480 	"/>
	<path class="st3" d="M400,484.8c0,6.4-4.8,11.2-11.2,11.2H107.2c-6.4,0-11.2-4.8-11.2-11.2v-2.4c0-6.4,4.8-11.2,11.2-11.2h281.6
		c6.4,0,11.2,4.8,11.2,11.2V484.8z"/>
	<path class="st4" d="M400,484L400,484c0,6.4-4.8,12-11.2,12H107.2c-6.4,0-11.2-5.6-11.2-11.2l0,0"/>
	<path class="st3" d="M306.4,32c6.4,0,13.6,7.2,13.6,13.6V80c0,6.4-7.2,8-13.6,8H189.6c-6.4,0-13.6-1.6-13.6-8V45.6
		c0-6.4,7.2-13.6,13.6-13.6H304 M306.4,0H189.6c-24,0-45.6,21.6-45.6,45.6V112c0,24,21.6,8,45.6,8h117.6c24,0,45.6,16,45.6-8V45.6
		C352,21.6,330.4,0,306.4,0L306.4,0z"/>
	<g>
		<path class="st5" d="M178.4,39.2c2.4-4,6.4-7.2,11.2-7.2h32.8h84.8H340c4.8,0,8.8,3.2,10.4,7.2C348,16.8,329.6,0,306.4,0h-84.8
			C199.2,0,180.8,16.8,178.4,39.2z"/>
		<path class="st5" d="M348,122.4c1.6-2.4,4-4,4-10.4V84c0,4.8-7.2,4-12.8,4h-32.8h-84.8h-32.8c-4.8,0-12.8,0.8-12.8-4v28
			c0,5.6,2.4,8,4.8,10.4c2.4,0,6.4-2.4,8.8-2.4h32.8h84.8H340C341.6,120,345.6,121.6,348,122.4z"/>
	</g>
	<path class="st3" d="M357.6,124c0,4.8-4,12-9.6,12H148c-4.8,0-9.6-7.2-9.6-12l0,0c0-4.8,4-12,9.6-12h200
		C352.8,112,357.6,119.2,357.6,124L357.6,124z"/>
	<path class="st6" d="M175.2,265.6c0,7.2-4,13.6-8.8,13.6s-8.8-6.4-8.8-13.6s4-20.8,8.8-20.8C172,244.8,175.2,258.4,175.2,265.6z"/>
	<path class="st1" d="M175.2,265.6c0,7.2-4,29.6-8.8,29.6s-8.8-21.6-8.8-29.6c0-7.2,4-13.6,8.8-13.6
		C172,252,175.2,258.4,175.2,265.6z"/>
	<ellipse class="st7" cx="167.2" cy="265.6" rx="8.8" ry="13.6"/>
	<path class="st6" d="M215.2,265.6c0,7.2-4,13.6-8.8,13.6s-8.8-6.4-8.8-13.6s4-20.8,8.8-20.8C212,244.8,215.2,258.4,215.2,265.6z"/>
	<path class="st1" d="M215.2,265.6c0,7.2-4,29.6-8.8,29.6s-8.8-21.6-8.8-29.6c0-7.2,4-13.6,8.8-13.6
		C212,252,215.2,258.4,215.2,265.6z"/>
	<ellipse class="st7" cx="207.2" cy="265.6" rx="8.8" ry="13.6"/>
	<path class="st6" d="M255.2,265.6c0,7.2-4,13.6-8.8,13.6s-8.8-6.4-8.8-13.6s4-20.8,8.8-20.8C252,244.8,255.2,258.4,255.2,265.6z"/>
	<path class="st1" d="M255.2,265.6c0,7.2-4,29.6-8.8,29.6s-8.8-21.6-8.8-29.6c0-7.2,4-13.6,8.8-13.6
		C252,252,255.2,258.4,255.2,265.6z"/>
	<ellipse class="st7" cx="247.2" cy="265.6" rx="8.8" ry="13.6"/>
	<path class="st6" d="M295.2,265.6c0,7.2-4,13.6-8.8,13.6s-8.8-6.4-8.8-13.6s4-20.8,8.8-20.8C292,244.8,295.2,258.4,295.2,265.6z"/>
	<path class="st1" d="M295.2,265.6c0,7.2-4,29.6-8.8,29.6s-8.8-21.6-8.8-29.6c0-7.2,4-13.6,8.8-13.6
		C292,252,295.2,258.4,295.2,265.6z"/>
	<ellipse class="st7" cx="287.2" cy="265.6" rx="8.8" ry="13.6"/>
	<path class="st6" d="M335.2,265.6c0,7.2-4,13.6-8.8,13.6s-8.8-6.4-8.8-13.6s4-20.8,8.8-20.8C332,244.8,335.2,258.4,335.2,265.6z"/>
	<path class="st1" d="M335.2,265.6c0,7.2-4,29.6-8.8,29.6s-8.8-21.6-8.8-29.6c0-7.2,4-13.6,8.8-13.6
		C332,252,335.2,258.4,335.2,265.6z"/>
	<ellipse class="st7" cx="327.2" cy="265.6" rx="8.8" ry="13.6"/>
	<path class="st6" d="M156.8,336.8c0,7.2-4,13.6-8.8,13.6s-8.8-6.4-8.8-13.6s4-20.8,8.8-20.8C152.8,316.8,156.8,329.6,156.8,336.8z"
		/>
	<path class="st1" d="M156.8,336.8c0,7.2-4,29.6-8.8,29.6s-8.8-21.6-8.8-29.6s4-13.6,8.8-13.6C152.8,324,156.8,329.6,156.8,336.8z"
		/>
	<ellipse class="st7" cx="148" cy="336.8" rx="8.8" ry="13.6"/>
	<path class="st6" d="M196.8,336.8c0,7.2-4,13.6-8.8,13.6s-8.8-6.4-8.8-13.6s4-20.8,8.8-20.8C192.8,316.8,196.8,329.6,196.8,336.8z"
		/>
	<path class="st1" d="M196.8,336.8c0,7.2-4,29.6-8.8,29.6s-8.8-21.6-8.8-29.6s4-13.6,8.8-13.6C192.8,324,196.8,329.6,196.8,336.8z"
		/>
	<ellipse class="st7" cx="188" cy="336.8" rx="8.8" ry="13.6"/>
	<path class="st6" d="M236.8,336.8c0,7.2-4,13.6-8.8,13.6s-8.8-6.4-8.8-13.6s4-20.8,8.8-20.8S236.8,329.6,236.8,336.8z"/>
	<path class="st1" d="M236.8,336.8c0,7.2-4,29.6-8.8,29.6s-8.8-21.6-8.8-29.6s4-13.6,8.8-13.6S236.8,329.6,236.8,336.8z"/>
	<ellipse class="st7" cx="228" cy="336.8" rx="8.8" ry="13.6"/>
	<path class="st6" d="M276.8,336.8c0,7.2-4,13.6-8.8,13.6s-8.8-6.4-8.8-13.6s4-20.8,8.8-20.8S276.8,329.6,276.8,336.8z"/>
	<path class="st1" d="M276.8,336.8c0,7.2-4,29.6-8.8,29.6s-8.8-21.6-8.8-29.6s4-13.6,8.8-13.6S276.8,329.6,276.8,336.8z"/>
	<ellipse class="st7" cx="268" cy="336.8" rx="8.8" ry="13.6"/>
	<path class="st6" d="M316.8,336.8c0,7.2-4,13.6-8.8,13.6s-8.8-6.4-8.8-13.6s4-20.8,8.8-20.8S316.8,329.6,316.8,336.8z"/>
	<path class="st1" d="M316.8,336.8c0,7.2-4,29.6-8.8,29.6s-8.8-21.6-8.8-29.6s4-13.6,8.8-13.6S316.8,329.6,316.8,336.8z"/>
	<ellipse class="st7" cx="308" cy="336.8" rx="8.8" ry="13.6"/>
	<path class="st6" d="M356.8,336.8c0,7.2-4,13.6-8.8,13.6s-8.8-6.4-8.8-13.6s4-20.8,8.8-20.8C352.8,316.8,356.8,329.6,356.8,336.8z"
		/>
	<path class="st1" d="M356.8,336.8c0,7.2-4,29.6-8.8,29.6s-8.8-21.6-8.8-29.6s4-13.6,8.8-13.6C352.8,324,356.8,329.6,356.8,336.8z"
		/>
	<ellipse class="st7" cx="348" cy="336.8" rx="8.8" ry="13.6"/>
	<path class="st6" d="M173.6,408.8c0,7.2-4,13.6-8.8,13.6s-8.8-6.4-8.8-13.6s4-20.8,8.8-20.8S173.6,401.6,173.6,408.8z"/>
	<path class="st1" d="M173.6,408.8c0,7.2-4,29.6-8.8,29.6s-8.8-21.6-8.8-29.6s4-13.6,8.8-13.6C169.6,395.2,173.6,401.6,173.6,408.8z
		"/>
	<ellipse class="st7" cx="164.8" cy="408.8" rx="8.8" ry="13.6"/>
	<path class="st6" d="M213.6,408.8c0,7.2-4,13.6-8.8,13.6s-8.8-6.4-8.8-13.6s4-20.8,8.8-20.8S213.6,401.6,213.6,408.8z"/>
	<path class="st1" d="M213.6,408.8c0,7.2-4,29.6-8.8,29.6s-8.8-21.6-8.8-29.6s4-13.6,8.8-13.6C209.6,395.2,213.6,401.6,213.6,408.8z
		"/>
	<ellipse class="st7" cx="204.8" cy="408.8" rx="8.8" ry="13.6"/>
	<path class="st6" d="M253.6,408.8c0,7.2-4,13.6-8.8,13.6s-8.8-6.4-8.8-13.6s4-20.8,8.8-20.8S253.6,401.6,253.6,408.8z"/>
	<path class="st1" d="M253.6,408.8c0,7.2-4,29.6-8.8,29.6s-8.8-21.6-8.8-29.6s4-13.6,8.8-13.6C249.6,395.2,253.6,401.6,253.6,408.8z
		"/>
	<ellipse class="st7" cx="244.8" cy="408.8" rx="8.8" ry="13.6"/>
	<path class="st6" d="M293.6,408.8c0,7.2-4,13.6-8.8,13.6s-8.8-6.4-8.8-13.6s4-20.8,8.8-20.8S293.6,401.6,293.6,408.8z"/>
	<path class="st1" d="M293.6,408.8c0,7.2-4,29.6-8.8,29.6s-8.8-21.6-8.8-29.6s4-13.6,8.8-13.6C289.6,395.2,293.6,401.6,293.6,408.8z
		"/>
	<ellipse class="st7" cx="284.8" cy="408.8" rx="8.8" ry="13.6"/>
	<path class="st6" d="M333.6,408.8c0,7.2-4,13.6-8.8,13.6s-8.8-6.4-8.8-13.6s4-20.8,8.8-20.8S333.6,401.6,333.6,408.8z"/>
	<path class="st1" d="M333.6,408.8c0,7.2-4,29.6-8.8,29.6s-8.8-21.6-8.8-29.6s4-13.6,8.8-13.6C329.6,395.2,333.6,401.6,333.6,408.8z
		"/>
	<ellipse class="st7" cx="324.8" cy="408.8" rx="8.8" ry="13.6"/>
	<circle class="st8" cx="206" cy="207.8" r="32.4"/>
	<circle class="st9" cx="206" cy="207.8" r="14.8"/>
	<circle class="st8" cx="287.2" cy="207.8" r="32.4"/>
	<circle class="st9" cx="287.2" cy="207.8" r="14.8"/>
	<line class="st10" x1="173.6" y1="150.9" x2="238.4" y2="175.4"/>
	<line class="st10" x1="255" y1="181.2" x2="323.3" y2="169.6"/>
</g>
<ellipse class="st9" cx="915.7" cy="252" rx="15" ry="14.8"/>
<ellipse class="st9" cx="1017" cy="252" rx="15" ry="14.8"/>
<circle class="st9" cx="1298.1" cy="46.1" r="9.2"/>
<circle class="st9" cx="1360.4" cy="46.1" r="9.2"/>
</svg>
