<?xml version="1.0" encoding="utf-8"?>
<!-- Generator: Adobe Illustrator 19.2.1, SVG Export Plug-In . SVG Version: 6.00 Build 0)  -->
<svg version="1.1" id="Слой_1" xmlns="http://www.w3.org/2000/svg" xmlns:xlink="http://www.w3.org/1999/xlink" x="0px" y="0px"
	 viewBox="0 0 160 60" style="enable-background:new 0 0 160 60;" xml:space="preserve">
<style type="text/css">
	.st0{fill:#009FE3;}
	.st1{fill:#0070AA;}
	.st2{fill:#FFFFFF;}
	.st3{fill:url(#SVGID_1_);}
	.st4{clip-path:url(#SVGID_3_);}
	.st5{fill:url(#SVGID_4_);}
	.st6{fill:url(#SVGID_5_);}
	.st7{clip-path:url(#SVGID_7_);}
	.st8{fill:url(#SVGID_8_);}
</style>
<path class="st0" d="M27,5.3c10.2,0,18.8,6.8,21.5,16.2c-7.4,2.2-14.3,5.7-21.3,10.5c-7-4.9-14.2-8.4-21.8-10.5
	C8.2,12.1,16.8,5.3,27,5.3z"/>
<path class="st1" d="M83.9,49.3v-9.2H73.6c-4,0-7.4,0-9-2.9c-0.3-0.6-0.9-2-0.9-6.2c0-1.8,0.2-4.8,1.2-6.7c1.6-3,4.6-2.9,8.5-2.9
	h9.9v-9.2H67.6c-4.2,0-9.6,0.5-13,4.8c-2.7,3.3-3.2,8-3.2,14.2c0,7.1,1.2,10.8,3.4,13.5c3,3.8,6.9,4.6,12.7,4.6L83.9,49.3L83.9,49.3
	z M110.3,49.3V21.4h13.3v-9.2H85v9.2h13.3v27.9H110.3L110.3,49.3z M157.1,49.3v-9.2h-10.3c-4,0-7.4,0-9-2.9c-0.3-0.6-0.9-2-0.9-6.2
	c0-1.8,0.2-4.8,1.2-6.7c1.6-3,4.6-2.9,8.5-2.9h9.9v-9.2h-15.7c-4.2,0-9.6,0.5-13,4.8c-2.7,3.3-3.2,8-3.2,14.2
	c0,7.1,1.2,10.8,3.4,13.5c3,3.8,6.9,4.6,12.7,4.6C140.7,49.3,157.1,49.3,157.1,49.3z"/>
<path class="st1" d="M15.1,56.4c-0.3,0.2-0.6,0.3-0.9,0.4c-0.1,0-0.4,0.1-0.7,0.1s-0.7-0.1-0.9-0.3c-0.3-0.3-0.3-0.8-0.3-1.1v-0.8
	c0-0.3,0-0.6,0.3-0.9c0.2-0.2,0.5-0.2,0.7-0.2s0.4,0,0.5,0.2C14,54,14,54.2,14,54.3s0,0.2,0,0.3l1.5-0.1c0.1-0.2,0.1-0.3,0.1-0.5
	c0-0.5-0.2-0.9-0.6-1.2c-0.5-0.3-1-0.3-1.5-0.3s-1.2,0.1-1.7,0.5c-0.9,0.6-1,1.7-1,2.4c0,0.8,0.2,1.6,1,2.2c0.5,0.4,1.1,0.6,1.7,0.6
	c0.6,0,1-0.1,1.3-0.2c0.3-0.1,0.6-0.2,0.9-0.5L15.1,56.4L15.1,56.4z M25.6,52.5h-4.8v5.4h1.6v-4.2H24v4.2h1.6V52.5L25.6,52.5z
	 M32.5,55.6h3.4V55c0-1-0.3-1.6-0.6-1.9c-0.4-0.4-1.1-0.7-1.8-0.7s-1.4,0.2-1.9,0.8c-0.5,0.6-0.7,1.3-0.7,2s0.1,1.5,0.7,2.1
	c0.7,0.7,1.6,0.7,2.1,0.7s0.9-0.1,1.3-0.2c0.3-0.1,0.6-0.3,0.9-0.4l-0.5-1c-0.3,0.2-0.5,0.3-0.7,0.3c-0.3,0.1-0.5,0.1-0.8,0.1
	s-0.7-0.1-1-0.3c-0.2-0.2-0.3-0.5-0.3-0.8v-0.1H32.5z M32.5,54.6v-0.2c0-0.4,0.1-0.6,0.2-0.7c0.1-0.2,0.3-0.3,0.6-0.3
	c0.4,0,0.6,0.2,0.7,0.3c0.2,0.2,0.2,0.5,0.2,0.7v0.2H32.5L32.5,54.6z M44.3,52.5v4.2h-1.6v-4.2h-1.6v5.4h4.1v1.3h1.5v-2.5h-0.8v-4.2
	H44.3L44.3,52.5z M51.1,52.5v1.2h1.6v4.2h1.6v-4.2h1.6v-1.2H51.1L51.1,52.5z M62.3,60.3v-2.5c0.1,0.1,0.5,0.3,1.2,0.3
	c0.8,0,1.2-0.3,1.5-0.5c0.7-0.7,0.8-1.6,0.8-2.3s0-1.4-0.6-2.1c-0.4-0.4-0.9-0.7-1.7-0.7c-0.5,0-1.1,0.2-1.4,0.6v-0.5h-1.4v7.7H62.3
	L62.3,60.3z M62.3,54c0.2-0.2,0.6-0.4,0.9-0.4c0.2,0,0.5,0,0.7,0.3c0.2,0.3,0.2,0.6,0.2,0.9v0.9c0,0.3,0,0.7-0.2,1
	c-0.1,0.1-0.3,0.3-0.7,0.3c-0.2,0-0.6-0.1-0.9-0.3L62.3,54L62.3,54z M74.4,57.9h1.5v-3.4c0-0.5,0-1.1-0.5-1.6
	c-0.6-0.5-1.4-0.6-2-0.6c-1.3,0-1.7,0.3-1.9,0.4c-0.4,0.3-0.6,0.8-0.3,1.4h1.4c0,0,0-0.1,0-0.2c0-0.3,0.2-0.4,0.3-0.5
	c0.2-0.1,0.4-0.1,0.6-0.1s0.5,0,0.7,0.2s0.2,0.4,0.2,0.6v0.5h-0.6c-0.4,0-1.5,0-2.1,0.3c-0.7,0.3-0.9,0.9-0.9,1.4
	c0,0.6,0.3,1,0.6,1.2c0.5,0.4,1,0.4,1.4,0.4s0.8-0.1,1.2-0.3c0.2-0.1,0.3-0.2,0.4-0.3l0,0L74.4,57.9L74.4,57.9z M74.3,56.5
	c-0.3,0.4-0.6,0.5-1,0.5c-0.6,0-0.8-0.3-0.8-0.7c0-0.7,0.8-0.8,1.4-0.8h0.5L74.3,56.5L74.3,56.5z M86.3,52.5h-1.6v2h-1.8v-2h-1.6
	v5.4h1.6v-2.2h1.8v2.2h1.6V52.5L86.3,52.5z M96.1,56.4c-0.3,0.2-0.6,0.3-0.9,0.4c-0.1,0-0.4,0.1-0.7,0.1c-0.3,0-0.7-0.1-0.9-0.3
	c-0.3-0.3-0.3-0.8-0.3-1.1v-0.8c0-0.3,0-0.6,0.3-0.9c0.2-0.2,0.5-0.2,0.7-0.2s0.4,0,0.5,0.2C95,54,95,54.2,95,54.3s0,0.2,0,0.3
	l1.5-0.1c0.1-0.2,0.1-0.3,0.1-0.5c0-0.5-0.2-0.9-0.6-1.2c-0.5-0.3-1-0.3-1.5-0.3s-1.2,0.1-1.7,0.5c-0.9,0.6-1,1.7-1,2.4
	c0,0.8,0.2,1.6,1,2.2c0.5,0.4,1.1,0.6,1.7,0.6s1-0.1,1.3-0.2c0.3-0.1,0.6-0.2,0.9-0.5L96.1,56.4L96.1,56.4z M106,56.4
	c-0.3,0.2-0.6,0.3-0.9,0.4c-0.1,0-0.4,0.1-0.7,0.1c-0.3,0-0.7-0.1-0.9-0.3c-0.3-0.3-0.3-0.8-0.3-1.1v-0.8c0-0.3,0-0.6,0.3-0.9
	c0.2-0.2,0.5-0.2,0.7-0.2s0.4,0,0.5,0.2c0.2,0.2,0.2,0.4,0.2,0.5s0,0.2,0,0.3l1.5-0.1c0.1-0.2,0.1-0.3,0.1-0.5
	c0-0.5-0.2-0.9-0.6-1.2c-0.5-0.3-1-0.3-1.5-0.3s-1.2,0.1-1.7,0.5c-0.9,0.6-1,1.7-1,2.4c0,0.8,0.2,1.6,1,2.2c0.5,0.4,1.1,0.6,1.7,0.6
	s1-0.1,1.3-0.2c0.3-0.1,0.6-0.2,0.9-0.5L106,56.4L106,56.4z M113.1,55.6h3.4V55c0-1-0.3-1.6-0.6-1.9c-0.4-0.4-1.1-0.7-1.8-0.7
	c-0.7,0-1.4,0.2-1.9,0.8s-0.7,1.3-0.7,2s0.1,1.5,0.7,2.1c0.7,0.7,1.6,0.7,2.1,0.7s0.9-0.1,1.3-0.2c0.3-0.1,0.6-0.3,0.9-0.4l-0.5-1
	c-0.3,0.2-0.5,0.3-0.7,0.3c-0.3,0.1-0.5,0.1-0.8,0.1s-0.7-0.1-1-0.3C113.3,56.3,113.2,56,113.1,55.6L113.1,55.6L113.1,55.6z
	 M113.1,54.6v-0.2c0-0.4,0.1-0.6,0.2-0.7c0.1-0.2,0.3-0.3,0.6-0.3c0.4,0,0.6,0.2,0.7,0.3c0.2,0.2,0.2,0.5,0.2,0.7v0.2H113.1
	L113.1,54.6z M123.3,60.3v-2.5c0.1,0.1,0.5,0.3,1.2,0.3c0.8,0,1.2-0.3,1.5-0.5c0.7-0.7,0.8-1.6,0.8-2.3s0-1.4-0.6-2.1
	c-0.4-0.4-0.9-0.7-1.7-0.7c-0.5,0-1.1,0.2-1.4,0.6v-0.5h-1.4v7.7H123.3L123.3,60.3z M123.3,54c0.2-0.2,0.6-0.4,0.9-0.4
	c0.2,0,0.5,0,0.7,0.3s0.2,0.6,0.2,0.9v0.9c0,0.3,0,0.7-0.2,1c-0.1,0.1-0.3,0.3-0.7,0.3c-0.2,0-0.6-0.1-0.9-0.3V54L123.3,54z
	 M132,57.9h2.7c0.5,0,1.2-0.1,1.7-0.4c0.5-0.3,0.6-0.8,0.6-1.1c0-0.5-0.2-0.8-0.4-1c-0.2-0.1-0.4-0.2-0.6-0.3l0,0
	c0.2-0.1,0.4-0.2,0.6-0.3c0.2-0.3,0.3-0.6,0.3-0.8c0-0.4-0.1-0.7-0.5-1s-1.1-0.3-1.5-0.3H132V57.9L132,57.9z M133.6,53.6h1
	c0.1,0,0.3,0,0.5,0.1c0.1,0.1,0.1,0.2,0.1,0.3s0,0.2-0.2,0.3c-0.1,0.1-0.3,0.2-0.4,0.2h-1L133.6,53.6L133.6,53.6z M133.6,55.7h1
	c0.2,0,0.4,0,0.5,0.1s0.2,0.2,0.2,0.4c0,0.1,0,0.2-0.1,0.4c-0.2,0.2-0.4,0.2-0.6,0.2h-1L133.6,55.7L133.6,55.7z M147.5,52.5h-1.6
	l-2.1,3.3l0,0l0.1-1v-2.3h-1.6v5.4h1.6l2.1-3.3l0,0l-0.1,1v2.3h1.6V52.5L147.5,52.5z M157.3,56.4c-0.3,0.2-0.6,0.3-0.9,0.4
	c-0.1,0-0.4,0.1-0.7,0.1s-0.7-0.1-0.9-0.3c-0.3-0.3-0.3-0.8-0.3-1.1v-0.8c0-0.3,0-0.6,0.3-0.9c0.2-0.2,0.5-0.2,0.7-0.2
	s0.4,0,0.5,0.2c0.2,0.2,0.2,0.4,0.2,0.5s0,0.2,0,0.3l1.5-0.1c0.1-0.2,0.1-0.3,0.1-0.5c0-0.5-0.2-0.9-0.6-1.2c-0.5-0.3-1-0.3-1.5-0.3
	s-1.2,0.1-1.7,0.5c-0.9,0.6-1,1.7-1,2.4c0,0.8,0.2,1.6,1,2.2c0.5,0.4,1.1,0.6,1.7,0.6c0.6,0,1-0.1,1.3-0.2c0.3-0.1,0.6-0.2,0.9-0.5
	L157.3,56.4z"/>
<path class="st1" d="M49,22.7c0.4,1.6,0.5,3.3,0.5,5c0,12.6-10.1,22.9-22.6,22.9S4.3,40.4,4.3,27.7c0-1.7,0.2-3.4,0.5-5
	c7.9,1.4,14.9,6.4,22.3,10.1C34.9,29,41.1,24.3,49,22.7L49,22.7z M15.1,43.2c2.9,2.3,5.1,3.1,8.2,3.9c-2.3-1.7-4.1-3.4-5.7-5.7
	L15.1,43.2L15.1,43.2z M39.1,43.2l-2.5-1.8c-1.6,2.3-3.4,3.9-5.7,5.7C34.1,46.3,36.2,45.5,39.1,43.2L39.1,43.2z M33.4,40.3
	c-2.4-1-3.6-1-5-1v5.5C28.4,44.9,33.4,40.6,33.4,40.3L33.4,40.3z M20.7,40.3c0,0.3,5,4.6,5,4.4v-5.5C24.3,39.2,23.1,39.2,20.7,40.3
	L20.7,40.3z M16.4,30.9c0.3,2.8,0.9,4.2,2.3,6.7c2.2-0.9,4.5-1.3,7.2-1.6L16.4,30.9L16.4,30.9z M37.8,30.9l-9.5,5.2
	c2.6,0.3,5,0.6,7.2,1.6C36.9,35.1,37.5,33.7,37.8,30.9L37.8,30.9z M46.6,26.6L41,28.9c-0.3,3.9-0.8,6.4-2.8,9.9l3.4,2.2
	C44.6,37.6,46.7,33.2,46.6,26.6L46.6,26.6z M7.5,26.6c-0.1,6.5,2.1,11,5,14.4l3.4-2.2c-2-3.5-2.6-5.9-2.8-9.9L7.5,26.6z"/>
<path class="st2" d="M30.7,7.4c3.9,1.4,6.7,5.2,6.7,9.6c0,5.4-4.1,9.8-9.4,10.2c-0.9,1.5-0.8,3.7-1.9,3.9c-0.3,0.1-0.7,0.1-1.2-0.5
	c-1.2-1.3-1.5-2.6-1.9-4.3c-3.6-1.6-6-5.2-6-9.3c0-4,2.2-7.4,5.5-9.1c1.1-1,2.2-1.9,3.1-3.2c0.9-0.1,0.8,0.5,1.8,0.5
	c1.2,0,2.3,0.1,3.5,0.1L30.7,7.4z"/>
<g>
	<path class="st1" d="M26.8,0.8C27,3.4,26.4,4.7,25.1,6c-3.2,3.3-7.4,5.3-7.4,10.8c0,3.8,2.3,7.1,5.6,8.6c0-1.7,0.7-2.9,1.6-4.3
		c0.8-1.2,1.9-2.1,2.8-3.1c0.9-0.9,1.8-1.7,2.5-2.7c1.6-2,1.9-3.3,1.8-5.7c0.8,1,1.4,2,2,3c0.7,1.2,1,2.4,1.2,3.7
		c0.2,1.5-0.1,2.7-0.7,3.8c-0.8,1.6-2,2.7-3.2,3.8c-0.6,0.5-1.1,1-1.7,1.5c-0.3,0.2-0.5,0.5-0.8,0.7c4.4-0.8,7.7-4.7,7.7-9.3
		c0-3.9-2.4-7.3-5.8-8.7l-0.2,1.1c-0.4,1.2-0.8,2.1-1.3,2.9c-1,1.4-2.2,2.6-3.4,3.8c-1.5,1.4-2.5,2.7-3.2,4.1
		c-0.2,0.4-0.3,0.8-0.4,1.2c-0.4,1.6-1.2,1.4-1.9,0.1c-0.5-0.8-0.9-1.7-1.2-2.6c-0.3-1.1-0.5-2.2-0.3-3.3c0.3-1.2,0.5-2,1.3-3.1
		c0.8-1.2,1.8-2.1,2.9-3C24.8,8,26.8,6.2,27.2,4C27.3,3.2,27.2,2.2,26.8,0.8z"/>
	
		<linearGradient id="SVGID_1_" gradientUnits="userSpaceOnUse" x1="29.3298" y1="60.0899" x2="21.8223" y2="43.2278" gradientTransform="matrix(1 0 0 -1 0 62)">
		<stop  offset="0" style="stop-color:#EA5B0C"/>
		<stop  offset="1" style="stop-color:#FFCC00"/>
	</linearGradient>
	<path class="st3" d="M27.7,4.2c-0.1,0.4-0.2,0.7-0.3,1c-0.5,1.3-1.4,2.4-2.6,3.3c-1.7,1.3-3,2.4-4.1,3.9c-1.2,1.7-1.6,3.3-1.3,5
		c0.1,0.8,0.4,1.4,0.6,2c0.8,1.9,1.4,1.9,2.3,0.2c0.1-0.2,0.2-0.4,0.3-0.5c0.5-0.8,1-1.5,1.7-2.3c0.6-0.7,1.4-1.4,2.2-2.2
		c1.6-1.7,3.4-3.5,3.8-6.2c0.3-2.1-0.2-3.3-1.3-4.8C28.5,3,28.3,3,28.1,3.1C27.7,3.3,27.7,3.6,27.7,4.2z"/>
	<g>
		<g>
			<defs>
				<path id="SVGID_2_" d="M27.7,4.2c-0.1,0.4-0.2,0.7-0.3,1c-0.5,1.3-1.4,2.4-2.6,3.3c-1.7,1.3-3,2.4-4.1,3.9
					c-1.2,1.7-1.6,3.3-1.3,5c0.1,0.8,0.4,1.4,0.6,2c0.8,1.9,1.4,1.9,2.3,0.2c0.1-0.2,0.2-0.4,0.3-0.5c0.5-0.8,1-1.5,1.7-2.3
					c0.6-0.7,1.4-1.4,2.2-2.2c1.6-1.7,3.4-3.5,3.8-6.2c0.3-2.1-0.2-3.3-1.3-4.8C28.5,3,28.3,3,28.1,3.1C27.7,3.3,27.7,3.6,27.7,4.2z
					"/>
			</defs>
			<clipPath id="SVGID_3_">
				<use xlink:href="#SVGID_2_"  style="overflow:visible;"/>
			</clipPath>
			<g class="st4">
				
					<linearGradient id="SVGID_4_" gradientUnits="userSpaceOnUse" x1="33.5718" y1="50.6249" x2="12.5458" y2="45.3825" gradientTransform="matrix(1 0 0 -1 0 62)">
					<stop  offset="0" style="stop-color:#EA5B0C"/>
					<stop  offset="1" style="stop-color:#FFCC00"/>
				</linearGradient>
				<path class="st5" d="M27.6,2.1c0.9,4,1.7,6.3-2.5,9.3c-2.7,2-4.6,5.6-4.1,8.5c0.3,2,0.7,3.4,1.9,4.9c-0.1-1.4,0.6-2.3,1.2-3.6
					c0.7-1.5,1.8-2.4,3.4-3.9c1.3-1.1,2.5-2.3,3.4-3.6c0.7-1.1,1.2-2.3,1.2-3.9C32.1,7.8,30.4,2.5,27.6,2.1z"/>
			</g>
		</g>
	</g>
	
		<linearGradient id="SVGID_5_" gradientUnits="userSpaceOnUse" x1="33.7181" y1="50.6835" x2="26.2883" y2="33.996" gradientTransform="matrix(1 0 0 -1 0 62)">
		<stop  offset="0" style="stop-color:#EA5B0C"/>
		<stop  offset="1" style="stop-color:#FFCC00"/>
	</linearGradient>
	<path class="st6" d="M32,13.6c-0.3,0.7-0.7,1.3-1.3,2c-0.9,1-1.8,2-2.7,2.9c-1.3,1.3-2.4,2.4-3.2,3.8c-1.1,1.7-1.3,3-1.1,4.4
		c0.1,0.6,0.3,1.2,0.5,1.7s0.4,0.9,0.6,1.3c0.6,1.2,1.4,0.8,1.5-0.2c0.1-0.5,0.2-1.1,0.4-1.5c0.7-1.4,1.7-2.3,3.3-3.6
		c1.2-1.1,2.5-2.1,3.4-3.4c0.7-1,1.2-2.1,1.2-3.6c0-1.3-0.3-2.6-0.9-3.9c-0.7-1.5-0.9-1.2-1-1.2C32.6,12.2,32.5,12.5,32,13.6z"/>
	<g>
		<g>
			<defs>
				<path id="SVGID_6_" d="M32,13.6c-0.3,0.7-0.7,1.3-1.3,2c-0.9,1-1.8,2-2.7,2.9c-1.3,1.3-2.4,2.4-3.2,3.8c-1.1,1.7-1.3,3-1.1,4.4
					c0.1,0.6,0.3,1.2,0.5,1.7s0.4,0.9,0.6,1.3c0.6,1.2,1.4,0.8,1.5-0.2c0.1-0.5,0.2-1.1,0.4-1.5c0.7-1.4,1.7-2.3,3.3-3.6
					c1.2-1.1,2.5-2.1,3.4-3.4c0.7-1,1.2-2.1,1.2-3.6c0-1.3-0.3-2.6-0.9-3.9c-0.7-1.5-0.9-1.2-1-1.2C32.6,12.2,32.5,12.5,32,13.6z"/>
			</defs>
			<clipPath id="SVGID_7_">
				<use xlink:href="#SVGID_6_"  style="overflow:visible;"/>
			</clipPath>
			<g class="st7">
				
					<linearGradient id="SVGID_8_" gradientUnits="userSpaceOnUse" x1="38.286" y1="41.5785" x2="17.2924" y2="36.3442" gradientTransform="matrix(1 0 0 -1 0 62)">
					<stop  offset="0" style="stop-color:#EA5B0C"/>
					<stop  offset="1" style="stop-color:#FFCC00"/>
				</linearGradient>
				<path class="st8" d="M32.6,11c0.9,4,1.4,6.4-2.7,9.5c-2.7,2-4.6,5.6-4.1,8.5c0.3,2,0.7,3.4,1.9,4.9c-0.1-1.4,0.6-2.3,1.2-3.6
					c0.7-1.5,1.8-2.4,3.4-3.9c1.3-1.1,2.5-2.3,3.4-3.6c0.7-1.1,1.2-2.3,1.2-3.9C36.9,16.8,33.9,13.3,32.6,11z"/>
			</g>
		</g>
	</g>
</g>
</svg>
