<?xml version="1.0" encoding="utf-8"?>
<!-- Generator: Adobe Illustrator 19.2.1, SVG Export Plug-In . SVG Version: 6.00 Build 0)  -->
<svg version="1.1" id="Layer_1" xmlns="http://www.w3.org/2000/svg" xmlns:xlink="http://www.w3.org/1999/xlink" x="0px" y="0px"
	 viewBox="0 0 1930.4 675" style="enable-background:new 0 0 1930.4 675;" xml:space="preserve">
<style type="text/css">
	.st0{fill:#B8D7E0;}
	.st1{fill:#C3E6ED;}
	.st2{fill:#9FC3CC;}
	.st3{fill:#118DEA;}
	.st4{fill:#0977DB;}
	.st5{fill:#0772DD;}
	.st6{fill:#88AEB7;}
	.st7{fill:#698D93;}
	.st8{fill:#FFFFFF;}
	.st9{fill:#050000;}
	.st10{fill:none;stroke:#000000;stroke-width:7;stroke-miterlimit:10;}
</style>
<g>
	<polygon class="st0" points="403.8,652 24.3,652 78.2,177.6 349.9,177.6 	"/>
	<polygon class="st1" points="78.2,177.6 24.3,652 39.4,652 93.3,177.6 	"/>
	<polyline class="st2" points="73.9,177.6 349.9,177.6 401.7,652 	"/>
	<path class="st3" d="M418.9,658.5c0,8.6-6.5,15.1-15.1,15.1H24.3c-8.6,0-15.1-6.5-15.1-15.1v-3.2c0-8.6,6.5-15.1,15.1-15.1h379.6
		c8.6,0,15.1,6.5,15.1,15.1L418.9,658.5L418.9,658.5z"/>
	<path class="st4" d="M418.9,657.4L418.9,657.4c0,8.6-6.5,16.2-15.1,16.2H24.3c-8.6,0-15.1-7.5-15.1-15.1l0,0"/>
	<path class="st3" d="M292.8,48.2c8.6,0,18.3,9.7,18.3,18.3v46.4c0,8.6-9.7,10.8-18.3,10.8H135.3c-8.6,0-18.3-2.2-18.3-10.8V66.5
		c0-8.6,9.7-18.3,18.3-18.3h154.2 M292.8,5H135.3C103,5,73.9,34.1,73.9,66.5V156c0,32.3,29.1,10.8,61.5,10.8h158.5
		c32.3,0,61.5,21.6,61.5-10.8V66.5C354.2,34.1,325.1,5,292.8,5L292.8,5z"/>
	<g>
		<path class="st5" d="M120.2,57.9c3.2-5.4,8.6-9.7,15.1-9.7h44.2h114.3h44.2c6.5,0,11.9,4.3,14,9.7C348.8,27.7,324,5,292.8,5H178.5
			C148.3,5,123.5,27.7,120.2,57.9z"/>
		<path class="st5" d="M348.8,170c2.2-3.2,5.4-5.4,5.4-14v-37.7c0,6.5-9.7,5.4-17.3,5.4h-44.2H178.5h-44.2c-6.5,0-17.3,1.1-17.3-5.4
			V156c0,7.5,3.2,10.8,6.5,14c3.2,0,8.6-3.2,11.9-3.2h44.2h114.3h44.2C340.2,166.8,345.6,168.9,348.8,170z"/>
	</g>
	<path class="st3" d="M361.8,172.2c0,6.5-5.4,16.2-12.9,16.2H79.3c-6.5,0-12.9-9.7-12.9-16.2l0,0c0-6.5,5.4-16.2,12.9-16.2h269.6
		C355.3,156,361.8,165.7,361.8,172.2L361.8,172.2z"/>
	<path class="st6" d="M115.9,363c0,9.7-5.4,18.3-11.9,18.3c-6.5,0-11.9-8.6-11.9-18.3s5.4-28,11.9-28
		C111.6,335,115.9,353.3,115.9,363z"/>
	<path class="st1" d="M115.9,363c0,9.7-5.4,39.9-11.9,39.9c-6.5,0-11.9-29.1-11.9-39.9c0-9.7,5.4-18.3,11.9-18.3
		C111.6,344.7,115.9,353.3,115.9,363z"/>
	<ellipse class="st7" cx="105.1" cy="363" rx="11.9" ry="18.3"/>
	<path class="st6" d="M169.8,363c0,9.7-5.4,18.3-11.9,18.3s-11.9-8.6-11.9-18.3s5.4-28,11.9-28C165.5,335,169.8,353.3,169.8,363z"/>
	<path class="st1" d="M169.8,363c0,9.7-5.4,39.9-11.9,39.9s-11.9-29.1-11.9-39.9c0-9.7,5.4-18.3,11.9-18.3
		C165.5,344.7,169.8,353.3,169.8,363z"/>
	<ellipse class="st7" cx="159.1" cy="363" rx="11.9" ry="18.3"/>
	<path class="st6" d="M223.8,363c0,9.7-5.4,18.3-11.9,18.3c-6.5,0-11.9-8.6-11.9-18.3s5.4-28,11.9-28
		C219.4,335,223.8,353.3,223.8,363z"/>
	<path class="st1" d="M223.8,363c0,9.7-5.4,39.9-11.9,39.9c-6.5,0-11.9-29.1-11.9-39.9c0-9.7,5.4-18.3,11.9-18.3
		C219.4,344.7,223.8,353.3,223.8,363z"/>
	<ellipse class="st7" cx="213" cy="363" rx="11.9" ry="18.3"/>
	<path class="st6" d="M277.7,363c0,9.7-5.4,18.3-11.9,18.3S254,372.7,254,363s5.4-28,11.9-28C273.4,335,277.7,353.3,277.7,363z"/>
	<path class="st1" d="M277.7,363c0,9.7-5.4,39.9-11.9,39.9S254,373.8,254,363c0-9.7,5.4-18.3,11.9-18.3
		C273.4,344.7,277.7,353.3,277.7,363z"/>
	<ellipse class="st7" cx="266.9" cy="363" rx="11.9" ry="18.3"/>
	<path class="st6" d="M331.6,363c0,9.7-5.4,18.3-11.9,18.3s-11.9-8.6-11.9-18.3s5.4-28,11.9-28C327.3,335,331.6,353.3,331.6,363z"/>
	<path class="st1" d="M331.6,363c0,9.7-5.4,39.9-11.9,39.9s-11.9-29.1-11.9-39.9c0-9.7,5.4-18.3,11.9-18.3
		C327.3,344.7,331.6,353.3,331.6,363z"/>
	<ellipse class="st7" cx="320.8" cy="363" rx="11.9" ry="18.3"/>
	<path class="st6" d="M91.1,459c0,9.7-5.4,18.3-11.9,18.3s-11.9-8.6-11.9-18.3s5.4-28,11.9-28C85.7,432,91.1,449.3,91.1,459z"/>
	<path class="st1" d="M91.1,459c0,9.7-5.4,39.9-11.9,39.9S67.4,469.8,67.4,459s5.4-18.3,11.9-18.3C85.7,441.7,91.1,449.3,91.1,459z"
		/>
	<ellipse class="st7" cx="79.3" cy="459" rx="11.9" ry="18.3"/>
	<path class="st6" d="M145,459c0,9.7-5.4,18.3-11.9,18.3s-11.9-8.6-11.9-18.3s5.4-28,11.9-28C139.7,432,145,449.3,145,459z"/>
	<path class="st1" d="M145,459c0,9.7-5.4,39.9-11.9,39.9s-11.9-29.1-11.9-39.9s5.4-18.3,11.9-18.3C139.7,441.7,145,449.3,145,459z"
		/>
	<ellipse class="st7" cx="133.2" cy="459" rx="11.9" ry="18.3"/>
	<path class="st6" d="M199,459c0,9.7-5.4,18.3-11.9,18.3c-6.5,0-11.9-8.6-11.9-18.3s5.4-28,11.9-28C193.6,431,199,449.3,199,459z"/>
	<path class="st1" d="M199,459c0,9.7-5.4,39.9-11.9,39.9c-6.5,0-11.9-29.1-11.9-39.9s5.4-18.3,11.9-18.3
		C193.6,440.7,199,449.3,199,459z"/>
	<ellipse class="st7" cx="187.1" cy="459" rx="11.9" ry="18.3"/>
	<path class="st6" d="M252.9,459c0,9.7-5.4,18.3-11.9,18.3s-11.9-8.6-11.9-18.3s5.4-28,11.9-28S252.9,449.3,252.9,459z"/>
	<path class="st1" d="M252.9,459c0,9.7-5.4,39.9-11.9,39.9s-11.9-29.1-11.9-39.9s5.4-18.3,11.9-18.3S252.9,449.3,252.9,459z"/>
	<ellipse class="st7" cx="241" cy="459" rx="11.9" ry="18.3"/>
	<path class="st6" d="M306.8,459c0,9.7-5.4,18.3-11.9,18.3c-6.5,0-11.9-8.6-11.9-18.3s5.4-28,11.9-28
		C301.4,431,306.8,449.3,306.8,459z"/>
	<path class="st1" d="M306.8,459c0,9.7-5.4,39.9-11.9,39.9c-6.5,0-11.9-29.1-11.9-39.9s5.4-18.3,11.9-18.3
		C301.4,440.7,306.8,449.3,306.8,459z"/>
	<ellipse class="st7" cx="294.9" cy="459" rx="11.9" ry="18.3"/>
	<path class="st6" d="M360.7,459c0,9.7-5.4,18.3-11.9,18.3c-6.5,0-11.9-8.6-11.9-18.3s5.4-28,11.9-28
		C355.3,432,360.7,449.3,360.7,459z"/>
	<path class="st1" d="M360.7,459c0,9.7-5.4,39.9-11.9,39.9c-6.5,0-11.9-29.1-11.9-39.9s5.4-18.3,11.9-18.3
		C355.3,441.7,360.7,449.3,360.7,459z"/>
	<ellipse class="st7" cx="348.8" cy="459" rx="11.9" ry="18.3"/>
	<path class="st6" d="M113.8,556c0,9.7-5.4,18.3-11.9,18.3c-6.5,0-11.9-8.6-11.9-18.3s5.4-28,11.9-28
		C108.4,528,113.8,546.3,113.8,556z"/>
	<path class="st1" d="M113.8,556c0,9.7-5.4,39.9-11.9,39.9c-6.5,0-11.9-29.1-11.9-39.9c0-10.8,5.4-18.3,11.9-18.3
		C108.4,537.7,113.8,546.3,113.8,556z"/>
	<ellipse class="st7" cx="101.9" cy="556" rx="11.9" ry="18.3"/>
	<path class="st6" d="M167.7,556c0,9.7-5.4,18.3-11.9,18.3S144,565.7,144,556s5.4-28,11.9-28S167.7,546.3,167.7,556z"/>
	<path class="st1" d="M167.7,556c0,9.7-5.4,39.9-11.9,39.9S144,566.8,144,556c0-10.8,5.4-18.3,11.9-18.3S167.7,546.3,167.7,556z"/>
	<ellipse class="st7" cx="155.8" cy="556" rx="11.9" ry="18.3"/>
	<path class="st6" d="M221.6,556c0,9.7-5.4,18.3-11.9,18.3s-11.9-8.6-11.9-18.3s5.4-28,11.9-28S221.6,546.3,221.6,556z"/>
	<path class="st1" d="M221.6,556c0,9.7-5.4,39.9-11.9,39.9s-11.9-29.1-11.9-39.9c0-10.8,5.4-18.3,11.9-18.3S221.6,546.3,221.6,556z"
		/>
	<ellipse class="st7" cx="209.7" cy="556" rx="11.9" ry="18.3"/>
	<path class="st6" d="M275.5,556c0,9.7-5.4,18.3-11.9,18.3s-11.9-8.6-11.9-18.3s5.4-28,11.9-28S275.5,546.3,275.5,556z"/>
	<path class="st1" d="M275.5,556c0,9.7-5.4,39.9-11.9,39.9s-11.9-29.1-11.9-39.9c0-10.8,5.4-18.3,11.9-18.3S275.5,546.3,275.5,556z"
		/>
	<ellipse class="st7" cx="263.7" cy="556" rx="11.9" ry="18.3"/>
	<path class="st6" d="M329.4,556c0,9.7-5.4,18.3-11.9,18.3s-11.9-8.6-11.9-18.3s5.4-28,11.9-28S329.4,546.3,329.4,556z"/>
	<path class="st1" d="M329.4,556c0,9.7-5.4,39.9-11.9,39.9s-11.9-29.1-11.9-39.9c0-10.8,5.4-18.3,11.9-18.3S329.4,546.3,329.4,556z"
		/>
	<ellipse class="st7" cx="317.6" cy="556" rx="11.9" ry="18.3"/>
	<circle class="st8" cx="157.4" cy="285.1" r="43.7"/>
	<circle class="st9" cx="157.4" cy="285.1" r="19.9"/>
	<circle class="st8" cx="266.9" cy="285.1" r="43.7"/>
	<circle class="st9" cx="266.9" cy="285.1" r="19.9"/>
	<line class="st10" x1="113.8" y1="208.4" x2="201.1" y2="241.4"/>
	<line class="st10" x1="223.5" y1="249.3" x2="315.5" y2="233.6"/>
</g>
<g>
	<path class="st8" d="M439.3,148h241.8v51H577.6v328.9H543V199H439.2L439.3,148L439.3,148z"/>
	<path class="st8" d="M715.8,148h221.4v51H750.3v110.9h180.6v51H750.3v115.9h186.9v51H715.8V148z"/>
	<path class="st8" d="M985.7,527.9V148h188.7c20.5,0,36.5,10,48.2,30.1s17.3,50.5,17.3,91.4s-5.8,71.2-17.7,91.1
		s-28.2,29.8-49.2,29.8h-152.9v137.5H985.7z M1020.2,339.3h152.9c9.8,0,17.8-5.6,23.7-16.8c5.8-11.2,8.8-28.9,8.8-53.1
		c0-24.2-2.8-42-8.7-53.4c-5.7-11.4-13.8-17.1-24.2-17.1h-152.6V339.3z"/>
	<path class="st8" d="M1296.3,527.9V148h34.5v154.2h34.5L1505.4,148h59.2l-162.2,179.1l172.7,200.8h-56.9l-152.9-174.7h-34.5v174.7
		L1296.3,527.9L1296.3,527.9z"/>
	<path class="st8" d="M1898.9,527.9h-34.5v-330l-196.7,330h-52V148h34.5v333.3L1848.6,148h50.4V527.9z"/>
</g>
<ellipse class="st8" cx="758.8" cy="123.3" rx="24.7" ry="14.8"/>
<ellipse class="st8" cx="894.2" cy="123.3" rx="24.7" ry="14.8"/>
</svg>
