<?xml version="1.0" encoding="utf-8"?>
<!-- Generator: Adobe Illustrator 19.2.1, SVG Export Plug-In . SVG Version: 6.00 Build 0)  -->
<svg version="1.1" id="Слой_1" xmlns="http://www.w3.org/2000/svg" xmlns:xlink="http://www.w3.org/1999/xlink" x="0px" y="0px"
	 viewBox="0 0 200 78.3" style="enable-background:new 0 0 200 78.3;" xml:space="preserve">
<style type="text/css">
	.st0{fill-rule:evenodd;clip-rule:evenodd;fill:#3571A3;}
	.st1{fill-rule:evenodd;clip-rule:evenodd;fill:#00ACEA;}
	
		.st2{fill-rule:evenodd;clip-rule:evenodd;fill:none;stroke:#FFFFFF;stroke-width:2.126;stroke-linecap:round;stroke-linejoin:round;stroke-miterlimit:22.9256;}
	.st3{fill-rule:evenodd;clip-rule:evenodd;fill:url(#SVGID_1_);}
</style>
<path class="st0" d="M103.5,62.4V50.9H90.6c-5,0-9.3,0-11.3-3.7c-0.4-0.8-1.1-2.5-1.1-7.7c0-2.3,0.2-6.1,1.5-8.4
	c2.1-3.7,5.7-3.7,10.6-3.7h12.4V15.9H83.1c-5.3,0-12,0.6-16.3,6.1c-3.3,4.2-4.1,10-4.1,17.8c0,8.9,1.5,13.5,4.3,17
	c3.8,4.7,8.7,5.7,15.9,5.7H103.5L103.5,62.4z M136.5,62.4v-35h16.6V15.9h-48.3v11.6h16.6v35H136.5L136.5,62.4z M195.3,62.4V50.9
	h-12.9c-5,0-9.3,0-11.3-3.7c-0.4-0.8-1.1-2.5-1.1-7.7c0-2.3,0.2-6.1,1.5-8.4c2.1-3.7,5.7-3.7,10.6-3.7h12.4V15.9h-19.7
	c-5.3,0-12,0.6-16.3,6.1c-3.3,4.2-4.1,10-4.1,17.8c0,8.9,1.5,13.5,4.3,17c3.8,4.7,8.7,5.7,15.9,5.7H195.3z"/>
<path class="st0" d="M17.2,71.3c-0.3,0.2-0.8,0.4-1.1,0.5c-0.1,0-0.5,0.1-0.9,0.1c-0.4,0-0.9-0.1-1.2-0.4c-0.4-0.4-0.4-1-0.4-1.4
	v-1.1c0-0.4,0-0.8,0.4-1.1c0.3-0.2,0.6-0.3,0.9-0.3c0.2,0,0.4,0,0.6,0.2c0.2,0.2,0.2,0.4,0.2,0.7c0,0.1,0,0.2,0,0.4l1.9-0.1
	c0.1-0.2,0.1-0.4,0.1-0.7c0-0.6-0.2-1.1-0.8-1.5c-0.6-0.4-1.3-0.4-1.9-0.4c-0.6,0-1.5,0.1-2.2,0.6c-1.2,0.8-1.3,2.2-1.3,3
	c0,1,0.3,2,1.3,2.8c0.7,0.5,1.3,0.7,2.2,0.7c0.7,0,1.3-0.1,1.7-0.3c0.4-0.1,0.8-0.3,1.2-0.6L17.2,71.3L17.2,71.3z M30.4,66.5h-6.1
	v6.7h2V68h2.1v5.2h2V66.5L30.4,66.5z M39.1,70.3h4.2v-0.7c0-1.3-0.4-2-0.8-2.4c-0.5-0.5-1.3-0.9-2.3-0.9c-0.9,0-1.7,0.3-2.4,1
	C37.2,68,37,68.9,37,69.7c0,0.8,0.1,1.9,0.9,2.7c0.9,0.9,2,0.9,2.7,0.9c0.6,0,1.1-0.1,1.6-0.3c0.4-0.1,0.8-0.3,1.2-0.6l-0.7-1.2
	c-0.3,0.2-0.6,0.3-0.9,0.4c-0.4,0.1-0.6,0.2-1,0.2s-0.9-0.1-1.2-0.4c-0.3-0.2-0.4-0.6-0.4-1V70.3L39.1,70.3z M39.1,69.1v-0.2
	c0-0.5,0.1-0.7,0.3-0.9c0.2-0.2,0.4-0.4,0.8-0.4c0.5,0,0.7,0.3,0.8,0.4c0.2,0.3,0.2,0.7,0.2,0.9v0.2H39.1L39.1,69.1z M53.9,66.5v5.3
	h-2v-5.3h-2v6.7H55v1.7h1.8v-3.1h-1v-5.3H53.9L53.9,66.5z M62.3,66.5V68h2v5.2h2V68h2v-1.5H62.3L62.3,66.5z M76.5,76.2V73
	c0.2,0.1,0.6,0.4,1.5,0.4c1,0,1.6-0.3,1.9-0.7c0.9-0.8,1-2,1-2.9c0-0.9-0.1-1.8-0.8-2.6c-0.5-0.5-1.1-0.9-2.1-0.9
	c-0.7,0-1.3,0.2-1.8,0.7v-0.6h-1.8v9.7H76.5L76.5,76.2z M76.5,68.3c0.3-0.3,0.7-0.5,1.2-0.5c0.2,0,0.6,0,0.8,0.4
	c0.3,0.3,0.3,0.8,0.3,1.1v1.1c0,0.4,0,0.9-0.3,1.2c-0.1,0.2-0.4,0.4-0.9,0.4c-0.3,0-0.7-0.1-1.1-0.4V68.3L76.5,68.3z M91.6,73.2h1.9
	V69c0-0.7,0-1.3-0.7-2c-0.7-0.6-1.8-0.7-2.5-0.7c-1.6,0-2.2,0.3-2.4,0.5c-0.5,0.4-0.7,1-0.4,1.7l1.8,0c0-0.1,0-0.1,0-0.3
	c0-0.4,0.2-0.5,0.3-0.6c0.2-0.1,0.5-0.1,0.8-0.1c0.2,0,0.7,0,0.9,0.3c0.2,0.2,0.2,0.5,0.2,0.7v0.7h-0.8c-0.5,0-1.8,0-2.6,0.4
	C87.2,70,87,70.8,87,71.3c0,0.7,0.3,1.2,0.7,1.5c0.6,0.5,1.2,0.5,1.8,0.5c0.5,0,1-0.1,1.5-0.4c0.2-0.1,0.4-0.2,0.5-0.4h0.1V73.2
	L91.6,73.2z M91.5,71.5c-0.4,0.4-0.8,0.6-1.3,0.6c-0.8,0-1-0.4-1-0.9c0-0.9,1.1-1,1.7-1h0.6V71.5L91.5,71.5z M106.6,66.5h-2V69h-2.3
	v-2.5h-2v6.7h2v-2.7h2.3v2.7h2V66.5L106.6,66.5z M118.9,71.3c-0.3,0.2-0.8,0.4-1.1,0.5c-0.1,0-0.5,0.1-0.9,0.1
	c-0.4,0-0.9-0.1-1.2-0.4c-0.4-0.4-0.4-1-0.4-1.4v-1.1c0-0.4,0-0.8,0.4-1.1c0.3-0.2,0.6-0.3,0.9-0.3c0.2,0,0.4,0,0.6,0.2
	c0.2,0.2,0.2,0.4,0.2,0.7c0,0.1,0,0.2,0,0.4l1.9-0.1c0.1-0.2,0.1-0.4,0.1-0.7c0-0.6-0.2-1.1-0.8-1.5c-0.6-0.4-1.3-0.4-1.9-0.4
	c-0.6,0-1.5,0.1-2.2,0.6c-1.2,0.8-1.3,2.2-1.3,3c0,1,0.3,2,1.3,2.8c0.7,0.5,1.3,0.7,2.2,0.7c0.7,0,1.3-0.1,1.7-0.3
	c0.4-0.1,0.8-0.3,1.2-0.6L118.9,71.3L118.9,71.3z M131.3,71.3c-0.3,0.2-0.8,0.4-1.1,0.5c-0.1,0-0.5,0.1-0.9,0.1
	c-0.4,0-0.9-0.1-1.2-0.4c-0.4-0.4-0.4-1-0.4-1.4v-1.1c0-0.4,0-0.8,0.4-1.1c0.3-0.2,0.6-0.3,0.9-0.3c0.2,0,0.4,0,0.6,0.2
	c0.2,0.2,0.2,0.4,0.2,0.7c0,0.1,0,0.2,0,0.4l1.9-0.1c0.1-0.2,0.1-0.4,0.1-0.7c0-0.6-0.2-1.1-0.8-1.5c-0.6-0.4-1.3-0.4-1.9-0.4
	c-0.6,0-1.5,0.1-2.2,0.6c-1.2,0.8-1.3,2.2-1.3,3c0,1,0.3,2,1.3,2.8c0.7,0.5,1.3,0.7,2.2,0.7c0.7,0,1.3-0.1,1.7-0.3
	c0.4-0.1,0.8-0.3,1.2-0.6L131.3,71.3L131.3,71.3z M140.1,70.3h4.2v-0.7c0-1.3-0.4-2-0.8-2.4c-0.5-0.5-1.3-0.9-2.3-0.9
	c-0.9,0-1.7,0.3-2.4,1c-0.7,0.7-0.8,1.6-0.8,2.5c0,0.8,0.1,1.9,0.9,2.7c0.9,0.9,2,0.9,2.7,0.9c0.6,0,1.1-0.1,1.6-0.3
	c0.4-0.1,0.8-0.3,1.2-0.6l-0.7-1.2c-0.3,0.2-0.6,0.3-0.9,0.4c-0.4,0.1-0.6,0.2-1,0.2c-0.4,0-0.9-0.1-1.2-0.4c-0.3-0.2-0.4-0.6-0.4-1
	V70.3L140.1,70.3z M140.1,69.1v-0.2c0-0.5,0.1-0.7,0.3-0.9c0.2-0.2,0.4-0.4,0.8-0.4c0.5,0,0.7,0.3,0.8,0.4c0.2,0.3,0.2,0.7,0.2,0.9
	v0.2H140.1L140.1,69.1z M152.9,76.2V73c0.2,0.1,0.6,0.4,1.5,0.4c1,0,1.6-0.3,1.9-0.7c0.9-0.8,1-2,1-2.9c0-0.9-0.1-1.8-0.8-2.6
	c-0.5-0.5-1.1-0.9-2.1-0.9c-0.7,0-1.3,0.2-1.8,0.7v-0.6h-1.8v9.7H152.9L152.9,76.2z M152.9,68.3c0.3-0.3,0.7-0.5,1.2-0.5
	c0.2,0,0.6,0,0.8,0.4s0.3,0.8,0.3,1.1v1.1c0,0.4,0,0.9-0.3,1.2c-0.1,0.2-0.4,0.4-0.9,0.4c-0.3,0-0.7-0.1-1.1-0.4V68.3L152.9,68.3z
	 M163.8,73.2h3.4c0.6,0,1.5-0.1,2.1-0.5c0.6-0.4,0.7-1,0.7-1.4c0-0.6-0.3-1-0.5-1.2c-0.2-0.2-0.5-0.3-0.7-0.3v0
	c0.3-0.1,0.5-0.2,0.7-0.4c0.3-0.4,0.3-0.8,0.3-1c0-0.5-0.1-0.9-0.6-1.3c-0.5-0.4-1.3-0.4-1.9-0.4h-3.5V73.2L163.8,73.2z M165.8,67.8
	h1.3c0.2,0,0.4,0,0.6,0.2c0.1,0.1,0.1,0.2,0.1,0.4c0,0.1-0.1,0.3-0.2,0.4c-0.1,0.1-0.4,0.2-0.6,0.2h-1.2V67.8L165.8,67.8z
	 M165.8,70.4h1.3c0.2,0,0.4,0.1,0.6,0.2c0.1,0.1,0.3,0.3,0.3,0.6c0,0.1,0,0.3-0.2,0.4c-0.2,0.2-0.5,0.3-0.7,0.3h-1.3V70.4
	L165.8,70.4z M183.3,66.5h-2l-2.6,4.2h-0.1l0.1-1.3v-2.9h-2v6.7h2l2.6-4.2h0.1l-0.1,1.3v2.9h2V66.5L183.3,66.5z M195.6,71.3
	c-0.3,0.2-0.8,0.4-1.1,0.5c-0.1,0-0.5,0.1-0.9,0.1c-0.4,0-0.9-0.1-1.2-0.4c-0.4-0.4-0.4-1-0.4-1.4v-1.1c0-0.4,0-0.8,0.4-1.1
	c0.3-0.2,0.6-0.3,0.9-0.3c0.2,0,0.4,0,0.6,0.2c0.2,0.2,0.2,0.4,0.2,0.7c0,0.1,0,0.2,0,0.4l1.9-0.1c0.1-0.2,0.1-0.4,0.1-0.7
	c0-0.6-0.2-1.1-0.8-1.5c-0.6-0.4-1.3-0.4-1.9-0.4c-0.6,0-1.5,0.1-2.2,0.6c-1.2,0.8-1.3,2.2-1.3,3c0,1,0.3,2,1.3,2.8
	c0.7,0.5,1.3,0.7,2.2,0.7c0.7,0,1.3-0.1,1.7-0.3c0.4-0.1,0.8-0.3,1.2-0.6L195.6,71.3z"/>
<path class="st1" d="M4.9,27.4C7.6,18.2,14.7,10.9,23.7,8c-5.3,7.5-10.7,15.2-5.3,24C13.7,29.8,10,28.3,4.9,27.4z"/>
<path class="st0" d="M59.8,29.1c0.4,2,0.7,4.1,0.7,6.3C60.5,51.2,47.8,64,32.1,64C16.5,64,3.8,51.2,3.8,35.4c0-2.2,0.2-4.2,0.7-6.3
	c9.9,1.8,18.7,8,27.9,12.7C42.1,36.9,49.9,31.1,59.8,29.1L59.8,29.1z M17.2,54.8c3.6,2.8,6.4,3.9,10.3,4.8c-2.9-2.2-5.1-4.3-7.1-7.1
	L17.2,54.8L17.2,54.8z M47.4,54.8l-3.2-2.3c-2,2.9-4.2,4.9-7.1,7.1C41,58.6,43.7,57.6,47.4,54.8L47.4,54.8z M40.3,51.1
	c-3-1.3-4.6-1.3-6.3-1.3v6.9C34,56.9,40.2,51.5,40.3,51.1L40.3,51.1z M24.2,51.1c0.1,0.4,6.3,5.8,6.3,5.6v-6.9
	C28.8,49.8,27.3,49.8,24.2,51.1L24.2,51.1z M18.9,39.3c0.3,3.5,1.1,5.2,2.9,8.5c2.7-1.2,5.7-1.6,9-2L18.9,39.3L18.9,39.3z
	 M45.7,39.3l-11.9,6.5c3.3,0.3,6.3,0.8,9,2C44.5,44.6,45.4,42.9,45.7,39.3L45.7,39.3z M56.8,34l-7,2.9c-0.3,4.9-1,8-3.5,12.4
	l4.3,2.8C54.2,47.8,56.9,42.2,56.8,34L56.8,34z M7.7,34c-0.1,8.2,2.6,13.8,6.2,18l4.3-2.8c-2.5-4.4-3.2-7.5-3.5-12.4L7.7,34z"/>
<path class="st1" d="M59.3,27.4C56.6,18.2,49.5,10.9,40.5,8c5.3,7.5,10.7,15.2,5.3,24C50.5,29.8,54.2,28.3,59.3,27.4z"/>
<g>
	<path class="st2" d="M32.2,2.2L32,2.5l-0.3-0.3c-3.9,4.4-8.1,8.9-10.9,14c-1.4,2.6-2.3,5.4-2.2,8.9c0.2,7.1,6,12.1,13.3,12.1h0h0
		c7.3,0,13.1-5,13.3-12.1c0.1-3.6-0.8-6.4-2.2-8.9C40.3,11,36.1,6.5,32.2,2.2z"/>
	<linearGradient id="SVGID_1_" gradientUnits="userSpaceOnUse" x1="55.176" y1="11.3027" x2="28.0607" y2="21.7112">
		<stop  offset="0" style="stop-color:#F98A3E"/>
		<stop  offset="1" style="stop-color:#FFF324"/>
	</linearGradient>
	<path class="st3" d="M32.2,2.2L32,2.5l-0.3-0.3c-3.9,4.4-8.1,8.9-10.9,14c-1.4,2.6-2.3,5.4-2.2,8.9c0.2,7.1,6,12.1,13.3,12.1h0h0
		c7.3,0,13.1-5,13.3-12.1c0.1-3.6-0.8-6.4-2.2-8.9C40.3,11,36.1,6.5,32.2,2.2z"/>
</g>
</svg>
