<?xml version="1.0" encoding="utf-8"?>
<!-- Generator: Adobe Illustrator 19.2.1, SVG Export Plug-In . SVG Version: 6.00 Build 0)  -->
<svg version="1.1" id="Capa_1" xmlns="http://www.w3.org/2000/svg" xmlns:xlink="http://www.w3.org/1999/xlink" x="0px" y="0px"
	 viewBox="0 0 500 500" style="enable-background:new 0 0 500 500;" xml:space="preserve">
<style type="text/css">
	.st0{fill:#FFFFFF;}
</style>
<g>
	<g>
		<path class="st0" d="M432.6,66.1H67.5c-32.6,0-59.1,26.5-59.1,59.1v249.6c0,32.6,26.5,59.1,59.1,59.1h365.1
			c32.6,0,59.1-26.5,59.1-59.1V125.3C491.8,92.7,465.3,66.1,432.6,66.1z M464.8,374.8c0,17.7-14.4,32.1-32.1,32.1H67.5
			c-17.7,0-32.1-14.4-32.1-32.1V125.3c0-17.7,14.4-32.1,32.1-32.1h365.1c17.7,0,32.1,14.4,32.1,32.1L464.8,374.8L464.8,374.8z"/>
		<path class="st0" d="M313.1,246.9l118.2-106c5.5-5,6-13.5,1-19.1c-5-5.5-13.5-6-19.1-1l-163,146.3l-31.8-28.4
			c-0.1-0.1-0.2-0.2-0.2-0.3c-0.7-0.7-1.4-1.3-2.2-1.9L86.7,120.7c-5.6-5-14.1-4.5-19.1,1.1s-4.5,14.1,1.1,19.1l119.6,106.9
			L69.2,359.3c-5.4,5.1-5.7,13.6-0.6,19.1c2.7,2.8,6.3,4.3,9.9,4.3c3.3,0,6.6-1.2,9.2-3.6L208.6,266l32.8,29.3
			c2.6,2.3,5.8,3.4,9,3.4s6.5-1.2,9-3.5l33.7-30.2l120.2,114.2c2.6,2.5,6,3.7,9.3,3.7c3.6,0,7.1-1.4,9.8-4.2
			c5.1-5.4,4.9-14-0.5-19.1L313.1,246.9z"/>
	</g>
</g>
</svg>
