<?xml version="1.0" encoding="utf-8"?>
<!-- Generator: Adobe Illustrator 19.2.1, SVG Export Plug-In . SVG Version: 6.00 Build 0)  -->
<svg version="1.1" id="Слой_1" xmlns="http://www.w3.org/2000/svg" xmlns:xlink="http://www.w3.org/1999/xlink" x="0px" y="0px"
	 viewBox="0 0 120 100" style="enable-background:new 0 0 120 100;" xml:space="preserve">
<style type="text/css">
	.st0{fill:#18364A;}
</style>
<path class="st0" d="M118.2,46.6L107,27.2c-1.3-2.2-3.7-3.6-6.3-3.6h-9.3C82.7,10.1,67.6,1.3,50.3,1.3c-27.1,0-49,21.9-49,49
	s21.9,49,49,49c17.2,0,32.4-8.9,41.1-22.3h9.3c2.6,0,5-1.4,6.3-3.6l11.2-19.4C119.5,51.6,119.5,48.9,118.2,46.6z M50.3,87.1
	c-20.3,0-36.8-16.5-36.8-36.8S30,13.5,50.3,13.5s36.8,16.5,36.8,36.8S70.7,87.1,50.3,87.1z"/>
</svg>
