<?xml version="1.0" encoding="utf-8"?>
<!-- Generator: Adobe Illustrator 19.2.1, SVG Export Plug-In . SVG Version: 6.00 Build 0)  -->
<svg version="1.1" id="Слой_1" xmlns="http://www.w3.org/2000/svg" xmlns:xlink="http://www.w3.org/1999/xlink" x="0px" y="0px"
	 viewBox="0 0 276.3 229.9" style="enable-background:new 0 0 276.3 229.9;" xml:space="preserve">
<style type="text/css">
	.st0{fill:#18364A;}
</style>
<path class="st0" d="M273.8,106.5L247.5,61c-3-5.2-8.6-8.5-14.7-8.5h-21.7C190.7,21,155.3,0.2,114.9,0.2C51.5,0.2,0.2,51.6,0.2,115
	s51.4,114.8,114.8,114.8c40.3,0,75.8-20.8,96.3-52.3h21.7c6,0,11.6-3.2,14.7-8.5l26.3-45.5C276.8,118.2,276.8,111.7,273.8,106.5z
	 M114.9,201.2c-47.6,0-86.2-38.6-86.2-86.2s38.6-86.2,86.2-86.2s86.2,38.6,86.2,86.2S162.5,201.2,114.9,201.2z"/>
</svg>
